<svg version="1.1" xmlns="http://www.w3.org/2000/svg" xmlns:xlink="http://www.w3.org/1999/xlink" stroke-linecap="round" stroke-linejoin="round" stroke-width="0" fill-rule="evenodd" clip-rule="evenodd" id="HIGkB9HBVIYBO9tLWGSg_bottom" viewBox="91544.1572915 -104455.8427085 97455.8427085 50911.685417" width="97.4558427085mm" height="50.911685417mm" class="w-100 h-100"><defs><style>.HIGkB9HBVIYBO9tLWGSg_fr4 {color: #666666;}
.HIGkB9HBVIYBO9tLWGSg_cu {color: #cccccc;}
.HIGkB9HBVIYBO9tLWGSg_cf {color: #cc9933;}
.HIGkB9HBVIYBO9tLWGSg_sm {color: #004200; opacity: 0.75;}
.HIGkB9HBVIYBO9tLWGSg_ss {color: #ffffff;}
.HIGkB9HBVIYBO9tLWGSg_sp {color: #999999;}
.HIGkB9HBVIYBO9tLWGSg_out {color: #000000;}</style><circle cx="0" cy="0" r="1500" id="cUHzFZTJOwSEJm4PBJrl_pad-10"/><rect x="-1500" y="-1500" width="3000" height="3000" id="cUHzFZTJOwSEJm4PBJrl_pad-11"/><rect x="-1000" y="-1000" width="2000" height="2000" id="cUHzFZTJOwSEJm4PBJrl_pad-12"/><circle cx="0" cy="0" r="1000" id="cUHzFZTJOwSEJm4PBJrl_pad-13"/><circle cx="0" cy="0" r="400" id="cUHzFZTJOwSEJm4PBJrl_pad-14"/><circle cx="0" cy="0" r="7.85" id="HmKQ_lESttWfL_GLxOJs_pad-1"/><circle cx="0" cy="0" r="19.7" id="HmKQ_lESttWfL_GLxOJs_pad-2"/><circle cx="0" cy="0" r="29.55" id="HmKQ_lESttWfL_GLxOJs_pad-3"/><circle cx="0" cy="0" r="98.45" id="yhM1CF0yb1f6r4btrZj9_pad-1"/><g id="HIGkB9HBVIYBO9tLWGSg_bottom_silkscreen"><path d="M 160045.671 -78785.281 A 11495.7601797 11495.7601797 0 0 1 137600 -75240 M 137601.754 -75213.616 A 799.99987 799.99987 0 0 0 136850 -75740 M 160045.671 -78694.719 A 11495.7601797 11495.7601797 0 0 0 137600 -82240 M 137601.754 -82266.384 A 799.99987 799.99987 0 0 1 136850 -81740 M 131150 -81740 136850 -81740 M 131150 -75740 131150 -81740 M 131150 -75740 136850 -75740 M 173770 -78740 A 6100 6100 0 0 1 161570 -78740 6100 6100 0 0 1 173770 -78740" fill="none" stroke-width="120"/><path d="M 134135.714 -82968.571 133992.857 -83016.19 133945.238 -83063.809 133897.619 -83159.047 133897.619 -83301.904 133945.238 -83397.142 133992.857 -83444.761 134088.095 -83492.38 134469.047 -83492.38 134469.047 -82492.38 134135.714 -82492.38 134040.476 -82540 133992.857 -82587.619 133945.238 -82682.857 133945.238 -82778.095 133992.857 -82873.333 134040.476 -82920.952 134135.714 -82968.571 134469.047 -82968.571 M 133611.904 -82492.38 133040.476 -82492.38 M 133326.19 -83492.38 133326.19 -82492.38 M 132183.333 -83492.38 132754.761 -83492.38 M 132469.047 -83492.38 132469.047 -82492.38 132564.285 -82635.238 132659.523 -82730.476 132754.761 -82778.095 M 136671.428 -78847.142 135528.571 -78847.142 M 136100 -79418.571 136100 -78275.714 M 168550.952 -71468.571 168408.095 -71516.19 168360.476 -71563.809 168312.857 -71659.047 168312.857 -71801.904 168360.476 -71897.142 168408.095 -71944.761 168503.333 -71992.38 168884.285 -71992.38 168884.285 -70992.38 168550.952 -70992.38 168455.714 -71040 168408.095 -71087.619 168360.476 -71182.857 168360.476 -71278.095 168408.095 -71373.333 168455.714 -71420.952 168550.952 -71468.571 168884.285 -71468.571 M 167979.523 -70992.38 167312.857 -70992.38 167979.523 -71992.38 167312.857 -71992.38 M 166408.095 -71992.38 166979.523 -71992.38 M 166693.809 -71992.38 166693.809 -70992.38 166789.047 -71135.238 166884.285 -71230.476 166979.523 -71278.095 M 171860.952 -76271.428 171099.047 -76271.428 M 171480 -76652.38 171480 -75890.476" fill="none" stroke-width="150"/></g><g id="HIGkB9HBVIYBO9tLWGSg_bottom_copper"><use xlink:href="#cUHzFZTJOwSEJm4PBJrl_pad-10" x="153840" y="-78740"/><use xlink:href="#cUHzFZTJOwSEJm4PBJrl_pad-11" x="133350" y="-78740"/><use xlink:href="#cUHzFZTJOwSEJm4PBJrl_pad-12" x="171470" y="-78740"/><use xlink:href="#cUHzFZTJOwSEJm4PBJrl_pad-13" x="163870" y="-78740"/><use xlink:href="#cUHzFZTJOwSEJm4PBJrl_pad-14" x="130810" y="-69850"/><use xlink:href="#cUHzFZTJOwSEJm4PBJrl_pad-14" x="130810" y="-72390"/><use xlink:href="#cUHzFZTJOwSEJm4PBJrl_pad-14" x="130810" y="-74930"/><use xlink:href="#cUHzFZTJOwSEJm4PBJrl_pad-14" x="130810" y="-77470"/><use xlink:href="#cUHzFZTJOwSEJm4PBJrl_pad-14" x="130810" y="-80010"/><use xlink:href="#cUHzFZTJOwSEJm4PBJrl_pad-14" x="130810" y="-82550"/><use xlink:href="#cUHzFZTJOwSEJm4PBJrl_pad-14" x="130810" y="-85090"/><use xlink:href="#cUHzFZTJOwSEJm4PBJrl_pad-14" x="130810" y="-87630"/><path d="M 153840 -78740 163870 -78740" fill="none" stroke-width="250"/><path d="M 118939.53 -54355.928 120867.102 -54584.072 122770.824 -54962.745 124638.987 -55489.622 126460.046 -56161.446 128222.762 -56974.069 129916.316 -57922.505 131530.211 -59000.876 133054.532 -60202.553 134495.474 -61534.545 134676.466 -61709.022 134695.235 -61724.605 134712.656 -61741.664 134727.524 -61753.877 135546.027 -62408.45 135583.059 -62433.807 135619.404 -62460.116 135635.903 -62469.99 135635.915 -62469.998 135635.925 -62470.003 136542.18 -62996.398 136582.541 -63015.997 136622.387 -63036.651 136640.163 -63043.977 136640.177 -63043.984 136640.189 -63043.988 137614.294 -63430.647 137657.124 -63444.069 137699.571 -63458.602 137718.249 -63463.225 138738.819 -63701.658 138783.152 -63708.6 138827.29 -63716.701 138846.444 -63718.512 138846.447 -63718.512 139891.05 -63803.476 139935.936 -63803.79 139980.773 -63805.277 139999.97 -63804.237 139999.987 -63804.237 140000.001 -63804.235 141028.807 -63735 177673 -63735 177673 -94265 141045.838 -94265 140829.341 -94238.225 140804.978 -94237.033 140780.797 -94233.85 140761.574 -94233.011 139714.01 -94201.005 139669.16 -94202.963 139624.31 -94203.746 139605.19 -94205.755 139605.174 -94205.756 139605.161 -94205.759 138564.387 -94328.943 138520.327 -94337.507 138476.079 -94344.912 138457.456 -94349.727 138457.448 -94349.729 138457.441 -94349.731 137446.301 -94625.399 137403.986 -94640.384 137361.322 -94654.246 137343.61 -94661.764 136384.316 -95083.864 136344.686 -95104.936 136304.534 -95124.955 136288.128 -95135.008 135401.761 -95694.264 135365.677 -95720.965 135328.93 -95746.696 135314.197 -95759.058 135314.189 -95759.064 135314.183 -95759.07 134520.222 -96443.19 134515.192 -96448.22 134501.081 -96460.272 133054.532 -97797.447 131530.211 -98999.124 129916.316 -100077.495 128222.762 -101025.931 126460.046 -101838.554 124638.987 -102510.378 122770.824 -103037.255 120867.102 -103415.928 118939.53 -103644.072 117000 -103720.276 115060.47 -103644.072 113132.898 -103415.928 111229.176 -103037.255 109361.013 -102510.378 107539.954 -101838.554 105777.228 -101025.926 104083.684 -100077.495 102469.789 -98999.124 100945.468 -97797.447 99520.119 -96479.869 98202.553 -95054.532 97000.876 -93530.211 95922.505 -91916.316 94974.069 -90222.762 94161.446 -88460.046 93489.622 -86638.987 92962.745 -84770.824 92584.072 -82867.102 92355.928 -80939.53 92306.165 -79672.969 102781.938 -79672.969 102783.861 -79711.334 102785.655 -79749.813 102785.918 -79752.365 102937.78 -81204.575 102943.848 -81242.584 102949.775 -81280.567 102950.312 -81283.076 103258.123 -82710.39 103268.251 -82747.49 103278.254 -82784.643 103279.059 -82787.079 103739.219 -84172.803 103753.329 -84208.679 103767.253 -84244.447 103768.316 -84246.782 104375.442 -85574.703 104393.304 -85608.769 104411.049 -85642.9 104412.358 -85645.107 105159.347 -86899.691 105180.757 -86931.589 105202.111 -86963.644 105203.651 -86965.697 106081.764 -88132.267 106106.556 -88161.74 106131.185 -88191.228 106132.93 -88193.093 106132.938 -88193.103 106132.947 -88193.112 107131.904 -89258.015 107159.694 -89284.6 107187.404 -89311.294 107189.349 -89312.968 108297.483 -90263.764 108328.032 -90287.23 108358.412 -90310.737 108360.526 -90312.191 109564.864 -91137.748 109597.772 -91157.781 109630.509 -91177.866 109632.768 -91179.084 110919.221 -91869.744 110954.163 -91886.134 110988.815 -91902.537 110991.184 -91903.5 110991.193 -91903.504 110991.203 -91903.507 112344.711 -92451.188 112381.078 -92463.661 112417.44 -92476.274 112419.907 -92476.978 113824.66 -92875.28 113862.274 -92883.778 113899.672 -92892.364 113902.201 -92892.798 115341.755 -93137.058 115379.848 -93141.418 115418.173 -93145.941 115420.734 -93146.098 116878.246 -93233.459 116916.644 -93233.68 116955.178 -93234.037 116957.741 -93233.917 118416.163 -93163.356 118454.484 -93159.416 118492.706 -93155.622 118495.24 -93155.226 118495.243 -93155.226 118495.246 -93155.225 119937.513 -92927.57 119975.095 -92919.534 120012.774 -92911.615 120015.252 -92910.947 121424.501 -92528.857 121461.108 -92516.772 121497.598 -92504.867 121499.983 -92503.938 121499.99 -92503.936 121499.996 -92503.933 122859.728 -91971.884 122894.811 -91955.918 122929.808 -91940.139 122932.069 -91938.963 122932.084 -91938.956 122932.098 -91938.948 124226.41 -91263.164 124259.57 -91243.498 124292.651 -91224.036 124294.778 -91222.618 124294.787 -91222.613 124294.795 -91222.607 125508.557 -90410.988 125572.154 -90363.29 125579.45 -90356.47 125581.572 -90355.26 125688.679 -90262.367 125748.848 -90184.84 125818.237 -90115.451 126035.01 -89791.027 126067.964 -89711.469 126144.757 -89526.074 126220.877 -89143.391 126220.877 -89143.389 126235 -89072.388 126235 -77240 131202.56 -77240 131202.56 -80240 131251.843 -80487.765 131392.191 -80697.809 131602.235 -80838.157 131850 -80887.44 134850 -80887.44 135097.765 -80838.157 135307.809 -80697.809 135448.157 -80487.765 135497.44 -80240 135497.44 -78315.322 151705 -78315.322 151705 -79164.678 152030.034 -79949.38 152630.62 -80549.966 153415.322 -80875 154264.678 -80875 155049.38 -80549.966 155649.966 -79949.38 155836.105 -79500 162415.091 -79500 162483.914 -79666.153 162943.847 -80126.086 163544.778 -80375 164195.222 -80375 164796.153 -80126.086 165256.086 -79666.153 165505 -79065.222 165505 -79025.75 169835 -79025.75 169835 -79866.31 169931.673 -80099.699 170110.302 -80278.327 170343.691 -80375 171184.25 -80375 171343 -80216.25 171343 -78867 171597 -78867 171597 -80216.25 171755.75 -80375 172596.309 -80375 172829.698 -80278.327 173008.327 -80099.699 173105 -79866.31 173105 -79025.75 172946.25 -78867 171597 -78867 171343 -78867 169993.75 -78867 169835 -79025.75 165505 -79025.75 165505 -78414.778 165256.086 -77813.847 165055.929 -77613.69 169835 -77613.69 169835 -78454.25 169993.75 -78613 171343 -78613 171343 -77263.75 171597 -77263.75 171597 -78613 172946.25 -78613 173105 -78454.25 173105 -77613.69 173008.327 -77380.301 172829.698 -77201.673 172596.309 -77105 171755.75 -77105 171597 -77263.75 171343 -77263.75 171184.25 -77105 170343.691 -77105 170110.302 -77201.673 169931.673 -77380.301 169835 -77613.69 165055.929 -77613.69 164796.153 -77353.914 164195.222 -77105 163544.778 -77105 162943.847 -77353.914 162483.914 -77813.847 162415.091 -77980 155836.105 -77980 155649.966 -77530.62 155049.38 -76930.034 154264.678 -76605 153415.322 -76605 152630.62 -76930.034 152030.034 -77530.62 151705 -78315.322 135497.44 -78315.322 135497.44 -77240 135448.157 -76992.235 135307.809 -76782.191 135097.765 -76641.843 134850 -76592.56 131850 -76592.56 131602.235 -76641.843 131392.191 -76782.191 131251.843 -76992.235 131202.56 -77240 126235 -77240 126235 -68927.612 126229.88 -68901.873 126223.1 -68806.473 126197.179 -68711.824 126183.302 -68614.681 126053.828 -68246.609 125978.629 -68119.608 125907.713 -67999.839 125647.239 -67709.333 125644.372 -67707.183 125634.032 -67694.99 125576.368 -67640.27 125513.132 -67592.095 125511.007 -67590.657 124390.279 -66834.717 124358.583 -66815.748 124326.938 -66796.484 124324.675 -66795.275 123035.819 -66109.109 123000.891 -66092.874 122966.11 -66076.558 122963.73 -66075.6 121608.307 -65532.643 121571.741 -65520.245 121535.491 -65507.812 121533.021 -65507.116 120126.887 -65113.72 120089.154 -65105.334 120051.815 -65096.898 120049.299 -65096.476 120049.284 -65096.473 120049.269 -65096.471 118608.889 -64857.24 118570.784 -64853.013 118532.439 -64848.623 118529.877 -64848.475 117072.069 -64766.203 117033.692 -64766.116 116995.136 -64765.893 116992.574 -64766.022 116992.572 -64766.022 115534.407 -64841.673 115496.174 -64845.739 115457.89 -64849.674 115455.356 -64850.079 114013.888 -65082.769 113976.216 -65090.962 113938.684 -65098.987 113936.213 -65099.662 113936.208 -65099.663 113936.203 -65099.665 112528.303 -65486.669 112491.756 -65498.876 112455.29 -65510.914 112452.908 -65511.852 112452.901 -65511.854 112452.895 -65511.857 111095.027 -66048.649 111060.066 -66064.707 111025.058 -66080.638 111022.786 -66081.83 109730.827 -66762.136 109697.794 -66781.883 109664.724 -66801.494 109662.593 -66802.925 108451.664 -67618.781 108420.911 -67642.014 108390.197 -67665.049 108388.233 -67666.701 107272.499 -68608.566 107244.532 -68634.893 107216.389 -68661.2 107214.615 -68663.055 106207.127 -69719.909 106182.118 -69749.16 106157.03 -69778.296 106155.467 -69780.331 105268.011 -70939.812 105246.312 -70971.586 105224.512 -71003.268 105223.178 -71005.46 104466.137 -72254.004 104448.033 -72287.867 104429.746 -72321.786 104428.657 -72324.11 103810.885 -73647.111 103796.542 -73682.736 103782.027 -73718.427 103781.195 -73720.854 103309.92 -75102.835 103299.487 -75139.876 103288.933 -75176.851 103288.373 -75179.336 103288.368 -75179.354 103288.365 -75179.372 102969.103 -76604.15 102962.775 -76641.843 102956.232 -76680 102955.941 -76682.549 102792.42 -78133.492 102790.192 -78171.787 102787.816 -78210.287 102787.802 -78212.853 102781.938 -79672.969 92306.165 -79672.969 92279.724 -79000 92355.928 -77060.47 92584.072 -75132.898 92962.745 -73229.176 93489.622 -71361.013 94161.446 -69539.954 94974.069 -67777.238 95922.505 -66083.684 97000.876 -64469.789 98202.553 -62945.468 99520.119 -61520.131 100945.468 -60202.553 102469.789 -59000.876 104083.684 -57922.505 105777.228 -56974.074 107539.954 -56161.446 109361.013 -55489.622 111229.176 -54962.745 113132.898 -54584.072 115060.47 -54355.928 117000 -54279.724 118939.53 -54355.928 118939.53 -54355.928"/><path d="M 118939.53 -54355.928 120867.102 -54584.072 122770.824 -54962.745 124638.987 -55489.622 126460.046 -56161.446 128222.762 -56974.069 129916.316 -57922.505 131530.211 -59000.876 133054.532 -60202.553 134495.474 -61534.545 134676.466 -61709.022 134695.235 -61724.605 134712.656 -61741.664 134727.524 -61753.877 135546.027 -62408.45 135583.059 -62433.807 135619.404 -62460.116 135635.903 -62469.99 135635.915 -62469.998 135635.925 -62470.003 136542.18 -62996.398 136582.541 -63015.997 136622.387 -63036.651 136640.163 -63043.977 136640.177 -63043.984 136640.189 -63043.988 137614.294 -63430.647 137657.124 -63444.069 137699.571 -63458.602 137718.249 -63463.225 138738.819 -63701.658 138783.152 -63708.6 138827.29 -63716.701 138846.444 -63718.512 138846.447 -63718.512 139891.05 -63803.476 139935.936 -63803.79 139980.773 -63805.277 139999.97 -63804.237 139999.987 -63804.237 140000.001 -63804.235 141028.807 -63735 177673 -63735 177673 -94265 141045.838 -94265 140829.341 -94238.225 140804.978 -94237.033 140780.797 -94233.85 140761.574 -94233.011 139714.01 -94201.005 139669.16 -94202.963 139624.31 -94203.746 139605.19 -94205.755 139605.174 -94205.756 139605.161 -94205.759 138564.387 -94328.943 138520.327 -94337.507 138476.079 -94344.912 138457.456 -94349.727 138457.448 -94349.729 138457.441 -94349.731 137446.301 -94625.399 137403.986 -94640.384 137361.322 -94654.246 137343.61 -94661.764 136384.316 -95083.864 136344.686 -95104.936 136304.534 -95124.955 136288.128 -95135.008 135401.761 -95694.264 135365.677 -95720.965 135328.93 -95746.696 135314.197 -95759.058 135314.189 -95759.064 135314.183 -95759.07 134520.222 -96443.19 134515.192 -96448.22 134501.081 -96460.272 133054.532 -97797.447 131530.211 -98999.124 129916.316 -100077.495 128222.762 -101025.931 126460.046 -101838.554 124638.987 -102510.378 122770.824 -103037.255 120867.102 -103415.928 118939.53 -103644.072 117000 -103720.276 115060.47 -103644.072 113132.898 -103415.928 111229.176 -103037.255 109361.013 -102510.378 107539.954 -101838.554 105777.228 -101025.926 104083.684 -100077.495 102469.789 -98999.124 100945.468 -97797.447 99520.119 -96479.869 98202.553 -95054.532 97000.876 -93530.211 95922.505 -91916.316 94974.069 -90222.762 94161.446 -88460.046 93489.622 -86638.987 92962.745 -84770.824 92584.072 -82867.102 92355.928 -80939.53 92306.165 -79672.969 102781.938 -79672.969 102783.861 -79711.334 102785.655 -79749.813 102785.918 -79752.365 102937.78 -81204.575 102943.848 -81242.584 102949.775 -81280.567 102950.312 -81283.076 103258.123 -82710.39 103268.251 -82747.49 103278.254 -82784.643 103279.059 -82787.079 103739.219 -84172.803 103753.329 -84208.679 103767.253 -84244.447 103768.316 -84246.782 104375.442 -85574.703 104393.304 -85608.769 104411.049 -85642.9 104412.358 -85645.107 105159.347 -86899.691 105180.757 -86931.589 105202.111 -86963.644 105203.651 -86965.697 106081.764 -88132.267 106106.556 -88161.74 106131.185 -88191.228 106132.93 -88193.093 106132.938 -88193.103 106132.947 -88193.112 107131.904 -89258.015 107159.694 -89284.6 107187.404 -89311.294 107189.349 -89312.968 108297.483 -90263.764 108328.032 -90287.23 108358.412 -90310.737 108360.526 -90312.191 109564.864 -91137.748 109597.772 -91157.781 109630.509 -91177.866 109632.768 -91179.084 110919.221 -91869.744 110954.163 -91886.134 110988.815 -91902.537 110991.184 -91903.5 110991.193 -91903.504 110991.203 -91903.507 112344.711 -92451.188 112381.078 -92463.661 112417.44 -92476.274 112419.907 -92476.978 113824.66 -92875.28 113862.274 -92883.778 113899.672 -92892.364 113902.201 -92892.798 115341.755 -93137.058 115379.848 -93141.418 115418.173 -93145.941 115420.734 -93146.098 116878.246 -93233.459 116916.644 -93233.68 116955.178 -93234.037 116957.741 -93233.917 118416.163 -93163.356 118454.484 -93159.416 118492.706 -93155.622 118495.24 -93155.226 118495.243 -93155.226 118495.246 -93155.225 119937.513 -92927.57 119975.095 -92919.534 120012.774 -92911.615 120015.252 -92910.947 121424.501 -92528.857 121461.108 -92516.772 121497.598 -92504.867 121499.983 -92503.938 121499.99 -92503.936 121499.996 -92503.933 122859.728 -91971.884 122894.811 -91955.918 122929.808 -91940.139 122932.069 -91938.963 122932.084 -91938.956 122932.098 -91938.948 124226.41 -91263.164 124259.57 -91243.498 124292.651 -91224.036 124294.778 -91222.618 124294.787 -91222.613 124294.795 -91222.607 125508.557 -90410.988 125572.154 -90363.29 125579.45 -90356.47 125581.572 -90355.26 125688.679 -90262.367 125748.848 -90184.84 125818.237 -90115.451 126035.01 -89791.027 126067.964 -89711.469 126144.757 -89526.074 126220.877 -89143.391 126220.877 -89143.389 126235 -89072.388 126235 -77240 131202.56 -77240 131202.56 -80240 131251.843 -80487.765 131392.191 -80697.809 131602.235 -80838.157 131850 -80887.44 134850 -80887.44 135097.765 -80838.157 135307.809 -80697.809 135448.157 -80487.765 135497.44 -80240 135497.44 -78315.322 151705 -78315.322 151705 -79164.678 152030.034 -79949.38 152630.62 -80549.966 153415.322 -80875 154264.678 -80875 155049.38 -80549.966 155649.966 -79949.38 155836.105 -79500 162415.091 -79500 162483.914 -79666.153 162943.847 -80126.086 163544.778 -80375 164195.222 -80375 164796.153 -80126.086 165256.086 -79666.153 165505 -79065.222 165505 -79025.75 169835 -79025.75 169835 -79866.31 169931.673 -80099.699 170110.302 -80278.327 170343.691 -80375 171184.25 -80375 171343 -80216.25 171343 -78867 171597 -78867 171597 -80216.25 171755.75 -80375 172596.309 -80375 172829.698 -80278.327 173008.327 -80099.699 173105 -79866.31 173105 -79025.75 172946.25 -78867 171597 -78867 171343 -78867 169993.75 -78867 169835 -79025.75 165505 -79025.75 165505 -78414.778 165256.086 -77813.847 165055.929 -77613.69 169835 -77613.69 169835 -78454.25 169993.75 -78613 171343 -78613 171343 -77263.75 171597 -77263.75 171597 -78613 172946.25 -78613 173105 -78454.25 173105 -77613.69 173008.327 -77380.301 172829.698 -77201.673 172596.309 -77105 171755.75 -77105 171597 -77263.75 171343 -77263.75 171184.25 -77105 170343.691 -77105 170110.302 -77201.673 169931.673 -77380.301 169835 -77613.69 165055.929 -77613.69 164796.153 -77353.914 164195.222 -77105 163544.778 -77105 162943.847 -77353.914 162483.914 -77813.847 162415.091 -77980 155836.105 -77980 155649.966 -77530.62 155049.38 -76930.034 154264.678 -76605 153415.322 -76605 152630.62 -76930.034 152030.034 -77530.62 151705 -78315.322 135497.44 -78315.322 135497.44 -77240 135448.157 -76992.235 135307.809 -76782.191 135097.765 -76641.843 134850 -76592.56 131850 -76592.56 131602.235 -76641.843 131392.191 -76782.191 131251.843 -76992.235 131202.56 -77240 126235 -77240 126235 -68927.612 126229.88 -68901.873 126223.1 -68806.473 126197.179 -68711.824 126183.302 -68614.681 126053.828 -68246.609 125978.629 -68119.608 125907.713 -67999.839 125647.239 -67709.333 125644.372 -67707.183 125634.032 -67694.99 125576.368 -67640.27 125513.132 -67592.095 125511.007 -67590.657 124390.279 -66834.717 124358.583 -66815.748 124326.938 -66796.484 124324.675 -66795.275 123035.819 -66109.109 123000.891 -66092.874 122966.11 -66076.558 122963.73 -66075.6 121608.307 -65532.643 121571.741 -65520.245 121535.491 -65507.812 121533.021 -65507.116 120126.887 -65113.72 120089.154 -65105.334 120051.815 -65096.898 120049.299 -65096.476 120049.284 -65096.473 120049.269 -65096.471 118608.889 -64857.24 118570.784 -64853.013 118532.439 -64848.623 118529.877 -64848.475 117072.069 -64766.203 117033.692 -64766.116 116995.136 -64765.893 116992.574 -64766.022 116992.572 -64766.022 115534.407 -64841.673 115496.174 -64845.739 115457.89 -64849.674 115455.356 -64850.079 114013.888 -65082.769 113976.216 -65090.962 113938.684 -65098.987 113936.213 -65099.662 113936.208 -65099.663 113936.203 -65099.665 112528.303 -65486.669 112491.756 -65498.876 112455.29 -65510.914 112452.908 -65511.852 112452.901 -65511.854 112452.895 -65511.857 111095.027 -66048.649 111060.066 -66064.707 111025.058 -66080.638 111022.786 -66081.83 109730.827 -66762.136 109697.794 -66781.883 109664.724 -66801.494 109662.593 -66802.925 108451.664 -67618.781 108420.911 -67642.014 108390.197 -67665.049 108388.233 -67666.701 107272.499 -68608.566 107244.532 -68634.893 107216.389 -68661.2 107214.615 -68663.055 106207.127 -69719.909 106182.118 -69749.16 106157.03 -69778.296 106155.467 -69780.331 105268.011 -70939.812 105246.312 -70971.586 105224.512 -71003.268 105223.178 -71005.46 104466.137 -72254.004 104448.033 -72287.867 104429.746 -72321.786 104428.657 -72324.11 103810.885 -73647.111 103796.542 -73682.736 103782.027 -73718.427 103781.195 -73720.854 103309.92 -75102.835 103299.487 -75139.876 103288.933 -75176.851 103288.373 -75179.336 103288.368 -75179.354 103288.365 -75179.372 102969.103 -76604.15 102962.775 -76641.843 102956.232 -76680 102955.941 -76682.549 102792.42 -78133.492 102790.192 -78171.787 102787.816 -78210.287 102787.802 -78212.853 102781.938 -79672.969 92306.165 -79672.969 92279.724 -79000 92355.928 -77060.47 92584.072 -75132.898 92962.745 -73229.176 93489.622 -71361.013 94161.446 -69539.954 94974.069 -67777.238 95922.505 -66083.684 97000.876 -64469.789 98202.553 -62945.468 99520.119 -61520.131 100945.468 -60202.553 102469.789 -59000.876 104083.684 -57922.505 105777.228 -56974.074 107539.954 -56161.446 109361.013 -55489.622 111229.176 -54962.745 113132.898 -54584.072 115060.47 -54355.928 117000 -54279.724 118939.53 -54355.928" fill="none" stroke-width="254"/></g><g id="HIGkB9HBVIYBO9tLWGSg_bottom_soldermask"><path d="M 184937.56 -76143.759 185428.928 -76347.29 185428.93 -76347.291 185865.268 -76638.843 185871.153 -76642.775 186247.225 -77018.847 186247.227 -77018.85 186390.638 -77233.479 186542.71 -77461.072 186746.241 -77952.44 186850 -78474.072 186850 -79005.928 186746.241 -79527.56 186594.505 -79893.884 186542.709 -80018.93 186305.011 -80374.67 186247.225 -80461.153 185871.153 -80837.225 185871.15 -80837.227 185428.93 -81132.709 185428.929 -81132.71 185428.928 -81132.71 184937.56 -81336.241 184415.928 -81440 183884.072 -81440 183362.44 -81336.241 182871.072 -81132.71 182871.071 -81132.71 182871.07 -81132.709 182428.85 -80837.227 182428.847 -80837.225 182052.775 -80461.153 181994.989 -80374.67 181757.291 -80018.93 181705.495 -79893.884 181553.759 -79527.56 181450 -79005.928 181450 -78474.072 181553.759 -77952.44 181757.29 -77461.072 181909.363 -77233.479 182052.773 -77018.85 182052.775 -77018.847 182428.847 -76642.775 182434.732 -76638.843 182871.07 -76347.291 182871.072 -76347.29 183362.44 -76143.759 183884.072 -76040 184415.928 -76040 184937.56 -76143.759 184937.56 -76143.759"/><path d="M 154226.393 -77083.553 154335.872 -77105.33 154645.252 -77233.479 154923.687 -77419.523 155160.477 -77656.313 155346.521 -77934.748 155444.623 -78171.588 155474.67 -78244.129 155540 -78572.563 155540 -78907.437 155503.68 -79090.027 155474.67 -79235.872 155346.521 -79545.252 155160.477 -79823.687 154923.687 -80060.477 154645.252 -80246.521 154335.872 -80374.67 154226.393 -80396.447 154007.437 -80440 153672.563 -80440 153453.607 -80396.447 153344.128 -80374.67 153034.748 -80246.521 152756.313 -80060.477 152519.523 -79823.687 152333.479 -79545.252 152205.33 -79235.872 152176.32 -79090.027 152140 -78907.437 152140 -78572.563 152205.33 -78244.129 152235.377 -78171.588 152333.479 -77934.748 152519.523 -77656.313 152756.313 -77419.523 153034.748 -77233.479 153344.128 -77105.33 153453.607 -77083.553 153672.563 -77040 154007.437 -77040 154226.393 -77083.553 154226.393 -77083.553"/><path d="M 135050 -80440 131650 -80440 131650 -77040 135050 -77040 135050 -80440 135050 -80440"/><path d="M 172670 -79940 170270 -79940 170270 -77540 172670 -77540 172670 -79940 172670 -79940"/><path d="M 164220.026 -77586.115 164438.412 -77676.573 164634.958 -77807.901 164802.099 -77975.042 164933.427 -78171.588 165023.885 -78389.974 165070 -78621.809 165070 -78858.191 165023.885 -79090.026 164933.427 -79308.412 164802.099 -79504.958 164634.958 -79672.099 164438.412 -79803.427 164220.026 -79893.885 163988.191 -79940 163751.809 -79940 163519.974 -79893.885 163301.588 -79803.427 163105.042 -79672.099 162937.901 -79504.958 162806.573 -79308.412 162716.115 -79090.026 162670 -78858.191 162670 -78621.809 162716.115 -78389.974 162806.573 -78171.588 162937.901 -77975.042 163105.042 -77807.901 163301.588 -77676.573 163519.974 -77586.115 163751.809 -77540 163988.191 -77540 164220.026 -77586.115 164220.026 -77586.115"/></g><g id="HIGkB9HBVIYBO9tLWGSg_bottom_drill1" transform="scale(25.4,25.4)"><use xlink:href="#HmKQ_lESttWfL_GLxOJs_pad-1" x="5150" y="-2750"/><use xlink:href="#HmKQ_lESttWfL_GLxOJs_pad-1" x="5150" y="-2850"/><use xlink:href="#HmKQ_lESttWfL_GLxOJs_pad-1" x="5150" y="-2950"/><use xlink:href="#HmKQ_lESttWfL_GLxOJs_pad-1" x="5150" y="-3050"/><use xlink:href="#HmKQ_lESttWfL_GLxOJs_pad-1" x="5150" y="-3150"/><use xlink:href="#HmKQ_lESttWfL_GLxOJs_pad-1" x="5150" y="-3250"/><use xlink:href="#HmKQ_lESttWfL_GLxOJs_pad-1" x="5150" y="-3350"/><use xlink:href="#HmKQ_lESttWfL_GLxOJs_pad-1" x="5150" y="-3450"/><use xlink:href="#HmKQ_lESttWfL_GLxOJs_pad-2" x="6451.6" y="-3100"/><use xlink:href="#HmKQ_lESttWfL_GLxOJs_pad-2" x="6750.8" y="-3100"/><use xlink:href="#HmKQ_lESttWfL_GLxOJs_pad-3" x="5250" y="-3100"/><use xlink:href="#HmKQ_lESttWfL_GLxOJs_pad-3" x="6056.7" y="-3100"/></g><g id="HIGkB9HBVIYBO9tLWGSg_bottom_drill2" transform="scale(25.4,25.4)"><use xlink:href="#yhM1CF0yb1f6r4btrZj9_pad-1" x="7250" y="-3100"/></g><clipPath id="HIGkB9HBVIYBO9tLWGSg_bottom_outline"><path d="M 140996.322 -94999.475 A 7071.0683636 7071.0683636 0 0 1 134999.999 -96999.999 25455.8427085 25455.8427085 0 1 0 134999.999 -61000.001 7071.0683636 7071.0683636 0 0 1 140996.322 -63000.525 M 141000 -63000 183000 -63000 A 6000 6000 0 0 0 189000 -69000 L 189000 -89000 A 6000 6000 0 0 0 183000 -95000 L 141000 -95000 M 125500 -89000 125500 -69000 A 1000 1000 0 0 1 125100 -68200 13500 13500 0 1 1 125100 -89800 1000 1000 0 0 1 125500 -89000" fill="none" stroke-width="200"/></clipPath><mask id="HIGkB9HBVIYBO9tLWGSg_bottom_mech-mask"><g fill="#000" stroke="#000"><rect x="91544.1572915" y="-104455.8427085" width="97455.8427085" height="50911.685417" fill="#fff"/><use xlink:href="#HIGkB9HBVIYBO9tLWGSg_bottom_drill1"/><use xlink:href="#HIGkB9HBVIYBO9tLWGSg_bottom_drill2"/></g></mask><mask id="HIGkB9HBVIYBO9tLWGSg_bottom_cf-mask"><g fill="#fff" stroke="#fff"><use xlink:href="#HIGkB9HBVIYBO9tLWGSg_bottom_soldermask"/></g></mask><mask id="HIGkB9HBVIYBO9tLWGSg_bottom_sm-mask"><g fill="#000" stroke="#000"><rect x="91544.1572915" y="-104455.8427085" width="97455.8427085" height="50911.685417" fill="#fff"/><use xlink:href="#HIGkB9HBVIYBO9tLWGSg_bottom_soldermask"/></g></mask></defs><g transform="translate(0,-158000) scale(1,-1)"><g mask="url(#HIGkB9HBVIYBO9tLWGSg_bottom_mech-mask)" clip-path="url(#HIGkB9HBVIYBO9tLWGSg_bottom_outline)" transform="translate(280544.1572915,0) scale(-1,1)"><rect x="91544.1572915" y="-104455.8427085" width="97455.8427085" height="50911.685417" fill="currentColor" class="HIGkB9HBVIYBO9tLWGSg_fr4"/><use xlink:href="#HIGkB9HBVIYBO9tLWGSg_bottom_copper" fill="currentColor" stroke="currentColor" class="HIGkB9HBVIYBO9tLWGSg_cu"/><use xlink:href="#HIGkB9HBVIYBO9tLWGSg_bottom_copper" fill="currentColor" stroke="currentColor" class="HIGkB9HBVIYBO9tLWGSg_cf" mask="url(#HIGkB9HBVIYBO9tLWGSg_bottom_cf-mask)"/><g mask="url(#HIGkB9HBVIYBO9tLWGSg_bottom_sm-mask)"><rect x="91544.1572915" y="-104455.8427085" width="97455.8427085" height="50911.685417" fill="currentColor" class="HIGkB9HBVIYBO9tLWGSg_sm"/><use xlink:href="#HIGkB9HBVIYBO9tLWGSg_bottom_silkscreen" fill="currentColor" stroke="currentColor" class="HIGkB9HBVIYBO9tLWGSg_ss"/></g></g></g></svg>