G04 #@! TF.GenerationSoftware,KiCad,Pcbnew,(5.0.2)-1*
G04 #@! TF.CreationDate,2025-08-06T21:36:18+02:00*
G04 #@! TF.ProjectId,beerodul,62656572-6f64-4756-9c2e-6b696361645f,rev?*
G04 #@! TF.SameCoordinates,Original*
G04 #@! TF.FileFunction,Soldermask,Bot*
G04 #@! TF.FilePolarity,Negative*
%FSLAX46Y46*%
G04 Gerber Fmt 4.6, Leading zero omitted, Abs format (unit mm)*
G04 Created by KiCad (PCBNEW (5.0.2)-1) date 6. 08. 2025 21:36:18*
%MOMM*%
%LPD*%
G01*
G04 APERTURE LIST*
%ADD10C,0.100000*%
G04 APERTURE END LIST*
D10*
G36*
X184937560Y-76143759D02*
X185428928Y-76347290D01*
X185428930Y-76347291D01*
X185865268Y-76638843D01*
X185871153Y-76642775D01*
X186247225Y-77018847D01*
X186247227Y-77018850D01*
X186390638Y-77233479D01*
X186542710Y-77461072D01*
X186746241Y-77952440D01*
X186850000Y-78474072D01*
X186850000Y-79005928D01*
X186746241Y-79527560D01*
X186594505Y-79893884D01*
X186542709Y-80018930D01*
X186305011Y-80374670D01*
X186247225Y-80461153D01*
X185871153Y-80837225D01*
X185871150Y-80837227D01*
X185428930Y-81132709D01*
X185428929Y-81132710D01*
X185428928Y-81132710D01*
X184937560Y-81336241D01*
X184415928Y-81440000D01*
X183884072Y-81440000D01*
X183362440Y-81336241D01*
X182871072Y-81132710D01*
X182871071Y-81132710D01*
X182871070Y-81132709D01*
X182428850Y-80837227D01*
X182428847Y-80837225D01*
X182052775Y-80461153D01*
X181994989Y-80374670D01*
X181757291Y-80018930D01*
X181705495Y-79893884D01*
X181553759Y-79527560D01*
X181450000Y-79005928D01*
X181450000Y-78474072D01*
X181553759Y-77952440D01*
X181757290Y-77461072D01*
X181909363Y-77233479D01*
X182052773Y-77018850D01*
X182052775Y-77018847D01*
X182428847Y-76642775D01*
X182434732Y-76638843D01*
X182871070Y-76347291D01*
X182871072Y-76347290D01*
X183362440Y-76143759D01*
X183884072Y-76040000D01*
X184415928Y-76040000D01*
X184937560Y-76143759D01*
X184937560Y-76143759D01*
G37*
G36*
X154226393Y-77083553D02*
X154335872Y-77105330D01*
X154645252Y-77233479D01*
X154923687Y-77419523D01*
X155160477Y-77656313D01*
X155346521Y-77934748D01*
X155444623Y-78171588D01*
X155474670Y-78244129D01*
X155540000Y-78572563D01*
X155540000Y-78907437D01*
X155503680Y-79090027D01*
X155474670Y-79235872D01*
X155346521Y-79545252D01*
X155160477Y-79823687D01*
X154923687Y-80060477D01*
X154645252Y-80246521D01*
X154335872Y-80374670D01*
X154226393Y-80396447D01*
X154007437Y-80440000D01*
X153672563Y-80440000D01*
X153453607Y-80396447D01*
X153344128Y-80374670D01*
X153034748Y-80246521D01*
X152756313Y-80060477D01*
X152519523Y-79823687D01*
X152333479Y-79545252D01*
X152205330Y-79235872D01*
X152176320Y-79090027D01*
X152140000Y-78907437D01*
X152140000Y-78572563D01*
X152205330Y-78244129D01*
X152235377Y-78171588D01*
X152333479Y-77934748D01*
X152519523Y-77656313D01*
X152756313Y-77419523D01*
X153034748Y-77233479D01*
X153344128Y-77105330D01*
X153453607Y-77083553D01*
X153672563Y-77040000D01*
X154007437Y-77040000D01*
X154226393Y-77083553D01*
X154226393Y-77083553D01*
G37*
G36*
X135050000Y-80440000D02*
X131650000Y-80440000D01*
X131650000Y-77040000D01*
X135050000Y-77040000D01*
X135050000Y-80440000D01*
X135050000Y-80440000D01*
G37*
G36*
X172670000Y-79940000D02*
X170270000Y-79940000D01*
X170270000Y-77540000D01*
X172670000Y-77540000D01*
X172670000Y-79940000D01*
X172670000Y-79940000D01*
G37*
G36*
X164220026Y-77586115D02*
X164438412Y-77676573D01*
X164634958Y-77807901D01*
X164802099Y-77975042D01*
X164933427Y-78171588D01*
X165023885Y-78389974D01*
X165070000Y-78621809D01*
X165070000Y-78858191D01*
X165023885Y-79090026D01*
X164933427Y-79308412D01*
X164802099Y-79504958D01*
X164634958Y-79672099D01*
X164438412Y-79803427D01*
X164220026Y-79893885D01*
X163988191Y-79940000D01*
X163751809Y-79940000D01*
X163519974Y-79893885D01*
X163301588Y-79803427D01*
X163105042Y-79672099D01*
X162937901Y-79504958D01*
X162806573Y-79308412D01*
X162716115Y-79090026D01*
X162670000Y-78858191D01*
X162670000Y-78621809D01*
X162716115Y-78389974D01*
X162806573Y-78171588D01*
X162937901Y-77975042D01*
X163105042Y-77807901D01*
X163301588Y-77676573D01*
X163519974Y-77586115D01*
X163751809Y-77540000D01*
X163988191Y-77540000D01*
X164220026Y-77586115D01*
X164220026Y-77586115D01*
G37*
M02*
