G04 #@! TF.GenerationSoftware,KiCad,Pcbnew,(5.0.2)-1*
G04 #@! TF.CreationDate,2025-08-06T21:36:18+02:00*
G04 #@! TF.ProjectId,beerodul,62656572-6f64-4756-9c2e-6b696361645f,rev?*
G04 #@! TF.SameCoordinates,Original*
G04 #@! TF.FileFunction,Copper,L1,Top*
G04 #@! TF.FilePolarity,Positive*
%FSLAX46Y46*%
G04 Gerber Fmt 4.6, Leading zero omitted, Abs format (unit mm)*
G04 Created by KiCad (PCBNEW (5.0.2)-1) date 6. 08. 2025 21:36:18*
%MOMM*%
%LPD*%
G01*
G04 APERTURE LIST*
G04 #@! TA.AperFunction,NonConductor*
%ADD10C,0.250000*%
G04 #@! TD*
G04 #@! TA.AperFunction,ComponentPad*
%ADD11C,3.000000*%
G04 #@! TD*
G04 #@! TA.AperFunction,ComponentPad*
%ADD12R,3.000000X3.000000*%
G04 #@! TD*
G04 #@! TA.AperFunction,ComponentPad*
%ADD13R,2.000000X2.000000*%
G04 #@! TD*
G04 #@! TA.AperFunction,ComponentPad*
%ADD14C,2.000000*%
G04 #@! TD*
G04 #@! TA.AperFunction,ViaPad*
%ADD15C,0.800000*%
G04 #@! TD*
G04 #@! TA.AperFunction,Conductor*
%ADD16C,0.500000*%
G04 #@! TD*
G04 #@! TA.AperFunction,Conductor*
%ADD17C,0.250000*%
G04 #@! TD*
G04 #@! TA.AperFunction,Conductor*
%ADD18C,0.254000*%
G04 #@! TD*
G04 APERTURE END LIST*
D10*
X107276790Y-62230882D02*
X107680851Y-61826821D01*
X107478820Y-62028852D02*
X108185927Y-62735958D01*
X108152255Y-62567600D01*
X108152255Y-62432913D01*
X108185927Y-62331897D01*
X107377805Y-63544080D02*
X107512492Y-63409393D01*
X107546164Y-63308378D01*
X107546164Y-63241035D01*
X107512492Y-63072676D01*
X107411477Y-62904317D01*
X107142103Y-62634943D01*
X107041087Y-62601271D01*
X106973744Y-62601271D01*
X106872729Y-62634943D01*
X106738042Y-62769630D01*
X106704370Y-62870645D01*
X106704370Y-62937989D01*
X106738042Y-63039004D01*
X106906400Y-63207363D01*
X107007416Y-63241035D01*
X107074759Y-63241035D01*
X107175774Y-63207363D01*
X107310461Y-63072676D01*
X107344133Y-62971661D01*
X107344133Y-62904317D01*
X107310461Y-62803302D01*
X106872729Y-63577752D02*
X106603355Y-63847126D01*
X107007416Y-63914470D02*
X106401324Y-63308378D01*
X106300309Y-63274706D01*
X106199293Y-63308378D01*
X106131950Y-63375722D01*
X105896248Y-63611424D02*
X106603355Y-64318531D01*
X105593202Y-63914470D02*
X105963591Y-64284859D01*
X106064606Y-64318531D01*
X106165622Y-64284859D01*
X106266637Y-64183844D01*
X106300309Y-64082829D01*
X106300309Y-64015485D01*
X104717736Y-64789935D02*
X105424843Y-65497042D01*
X104684065Y-65227668D01*
X104953439Y-65968447D01*
X104246332Y-65261340D01*
X103606569Y-65901103D02*
X103976958Y-66271492D01*
X104077973Y-66305164D01*
X104178988Y-66271492D01*
X104313675Y-66136805D01*
X104347347Y-66035790D01*
X103640240Y-65934775D02*
X103673912Y-65833760D01*
X103842271Y-65665401D01*
X103943286Y-65631729D01*
X104044301Y-65665401D01*
X104111645Y-65732744D01*
X104145317Y-65833760D01*
X104111645Y-65934775D01*
X103943286Y-66103134D01*
X103909614Y-66204149D01*
X103269851Y-66237821D02*
X103741256Y-66709225D01*
X103606569Y-66574538D02*
X103640240Y-66675553D01*
X103640240Y-66742897D01*
X103606569Y-66843912D01*
X103539225Y-66911256D01*
X102562744Y-67012271D02*
X102596416Y-66911256D01*
X102731103Y-66776569D01*
X102832118Y-66742897D01*
X102899462Y-66742897D01*
X103000477Y-66776569D01*
X103202508Y-66978599D01*
X103236179Y-67079614D01*
X103236179Y-67146958D01*
X103202508Y-67247973D01*
X103067821Y-67382660D01*
X102966805Y-67416332D01*
X102226027Y-67281645D02*
X102933134Y-67988752D01*
X101922981Y-67584691D02*
X102293370Y-67955080D01*
X102394386Y-67988752D01*
X102495401Y-67955080D01*
X102596416Y-67854065D01*
X102630088Y-67753049D01*
X102630088Y-67685706D01*
X101720951Y-69066248D02*
X101720951Y-69133591D01*
X101687279Y-69234606D01*
X101518920Y-69402965D01*
X101417905Y-69436637D01*
X101350561Y-69436637D01*
X101249546Y-69402965D01*
X101182203Y-69335622D01*
X101114859Y-69200935D01*
X101114859Y-68392813D01*
X100677126Y-68830545D01*
X100946500Y-69975385D02*
X100879157Y-70042729D01*
X100778142Y-70076400D01*
X100710798Y-70076400D01*
X100609783Y-70042729D01*
X100441424Y-69941713D01*
X100273065Y-69773355D01*
X100172050Y-69604996D01*
X100138378Y-69503981D01*
X100138378Y-69436637D01*
X100172050Y-69335622D01*
X100239393Y-69268278D01*
X100340409Y-69234606D01*
X100407752Y-69234606D01*
X100508767Y-69268278D01*
X100677126Y-69369293D01*
X100845485Y-69537652D01*
X100946500Y-69706011D01*
X100980172Y-69807026D01*
X100980172Y-69874370D01*
X100946500Y-69975385D01*
X99330256Y-70177416D02*
X99734317Y-69773355D01*
X99532287Y-69975385D02*
X100239393Y-70682492D01*
X100205722Y-70514133D01*
X100205722Y-70379446D01*
X100239393Y-70278431D01*
X98993539Y-70514133D02*
X98858852Y-70648820D01*
X98825180Y-70749835D01*
X98825180Y-70817179D01*
X98858852Y-70985538D01*
X98959867Y-71153896D01*
X99229241Y-71423270D01*
X99330256Y-71456942D01*
X99397600Y-71456942D01*
X99498615Y-71423270D01*
X99633302Y-71288583D01*
X99666974Y-71187568D01*
X99666974Y-71120225D01*
X99633302Y-71019209D01*
X99464943Y-70850851D01*
X99363928Y-70817179D01*
X99296584Y-70817179D01*
X99195569Y-70850851D01*
X99060882Y-70985538D01*
X99027210Y-71086553D01*
X99027210Y-71153896D01*
X99060882Y-71254912D01*
X106493921Y-60538877D02*
X106830639Y-60202159D01*
X107537745Y-60909266D01*
X106729623Y-61245983D02*
X106123532Y-60639892D01*
X106089860Y-60538877D01*
X106123532Y-60437861D01*
X106157204Y-60404190D01*
X106965326Y-61481686D02*
X106965326Y-61414342D01*
X106897982Y-61414342D01*
X106897982Y-61481686D01*
X106965326Y-61481686D01*
X106897982Y-61414342D01*
X106089860Y-61885747D02*
X105618456Y-61414342D01*
X106392906Y-61582701D02*
X106022517Y-61212312D01*
X105921501Y-61178640D01*
X105820486Y-61212312D01*
X105719471Y-61313327D01*
X105685799Y-61414342D01*
X105685799Y-61481686D01*
X105281738Y-61751060D02*
X105988845Y-62458166D01*
X105719471Y-62188792D02*
X105685799Y-62289808D01*
X105551112Y-62424495D01*
X105450097Y-62458166D01*
X105382753Y-62458166D01*
X105281738Y-62424495D01*
X105079708Y-62222464D01*
X105046036Y-62121449D01*
X105046036Y-62054105D01*
X105079708Y-61953090D01*
X105214395Y-61818403D01*
X105315410Y-61784731D01*
X104540960Y-62491838D02*
X104641975Y-62458166D01*
X104742990Y-62491838D01*
X105349082Y-63097930D01*
X104742990Y-63232617D02*
X104136899Y-62626525D01*
X104103227Y-62525510D01*
X104136899Y-62424495D01*
X104170570Y-62390823D01*
X104978692Y-63468319D02*
X104978692Y-63400975D01*
X104911349Y-63400975D01*
X104911349Y-63468319D01*
X104978692Y-63468319D01*
X104911349Y-63400975D01*
X103631822Y-63400975D02*
X104002212Y-63771365D01*
X104103227Y-63805036D01*
X104204242Y-63771365D01*
X104338929Y-63636678D01*
X104372601Y-63535662D01*
X103665494Y-63434647D02*
X103699166Y-63333632D01*
X103867525Y-63165273D01*
X103968540Y-63131601D01*
X104069555Y-63165273D01*
X104136899Y-63232617D01*
X104170570Y-63333632D01*
X104136899Y-63434647D01*
X103968540Y-63603006D01*
X103934868Y-63704021D01*
X103766509Y-64209097D02*
X103295105Y-63737693D01*
X103699166Y-64141754D02*
X103699166Y-64209097D01*
X103665494Y-64310113D01*
X103564479Y-64411128D01*
X103463464Y-64444800D01*
X103362448Y-64411128D01*
X102992059Y-64040739D01*
X102352296Y-64680502D02*
X102722685Y-65050891D01*
X102823700Y-65084563D01*
X102924716Y-65050891D01*
X103059403Y-64916204D01*
X103093074Y-64815189D01*
X102385968Y-64714174D02*
X102419639Y-64613158D01*
X102587998Y-64444800D01*
X102689013Y-64411128D01*
X102790029Y-64444800D01*
X102857372Y-64512143D01*
X102891044Y-64613158D01*
X102857372Y-64714174D01*
X102689013Y-64882532D01*
X102655342Y-64983548D01*
X102015578Y-65084563D02*
X101981906Y-65050891D01*
X101948235Y-64949876D01*
X101948235Y-64882532D01*
X101207456Y-65892685D02*
X101072769Y-65960029D01*
X100904410Y-66128387D01*
X100870739Y-66229403D01*
X100870739Y-66296746D01*
X100904410Y-66397761D01*
X100971754Y-66465105D01*
X101072769Y-66498777D01*
X101140113Y-66498777D01*
X101241128Y-66465105D01*
X101409487Y-66364090D01*
X101510502Y-66330418D01*
X101577845Y-66330418D01*
X101678861Y-66364090D01*
X101746204Y-66431433D01*
X101779876Y-66532448D01*
X101779876Y-66599792D01*
X101746204Y-66700807D01*
X101577845Y-66869166D01*
X101443158Y-66936509D01*
X100365662Y-66667135D02*
X100466678Y-66633464D01*
X100567693Y-66667135D01*
X101173784Y-67273227D01*
X99995273Y-67037525D02*
X100096288Y-67003853D01*
X100163632Y-67003853D01*
X100264647Y-67037525D01*
X100466678Y-67239555D01*
X100500349Y-67340570D01*
X100500349Y-67407914D01*
X100466678Y-67508929D01*
X100365662Y-67609944D01*
X100264647Y-67643616D01*
X100197304Y-67643616D01*
X100096288Y-67609944D01*
X99894258Y-67407914D01*
X99860586Y-67306899D01*
X99860586Y-67239555D01*
X99894258Y-67138540D01*
X99995273Y-67037525D01*
X99995273Y-67980334D02*
X99355510Y-67677288D01*
X99658556Y-68317051D01*
X98682075Y-68418066D02*
X98715747Y-68317051D01*
X98850434Y-68182364D01*
X98951449Y-68148692D01*
X99052464Y-68182364D01*
X99321838Y-68451738D01*
X99355510Y-68552753D01*
X99321838Y-68653769D01*
X99187151Y-68788456D01*
X99086136Y-68822127D01*
X98985121Y-68788456D01*
X98917777Y-68721112D01*
X99187151Y-68317051D01*
X98783090Y-69192517D02*
X98311686Y-68721112D01*
X98715747Y-69125173D02*
X98715747Y-69192517D01*
X98682075Y-69293532D01*
X98581060Y-69394547D01*
X98480044Y-69428219D01*
X98379029Y-69394547D01*
X98008640Y-69024158D01*
X97671922Y-69360875D02*
X98143327Y-69832280D01*
X98379029Y-70067982D02*
X98379029Y-70000639D01*
X98311686Y-70000639D01*
X98311686Y-70067982D01*
X98379029Y-70067982D01*
X98311686Y-70000639D01*
X97032159Y-70000639D02*
X97402548Y-70371028D01*
X97503564Y-70404700D01*
X97604579Y-70371028D01*
X97739266Y-70236341D01*
X97772938Y-70135326D01*
X97065831Y-70034310D02*
X97099503Y-69933295D01*
X97267861Y-69764936D01*
X97368877Y-69731265D01*
X97469892Y-69764936D01*
X97537235Y-69832280D01*
X97570907Y-69933295D01*
X97537235Y-70034310D01*
X97368877Y-70202669D01*
X97335205Y-70303684D01*
D11*
G04 #@! TO.P,BT1,2*
G04 #@! TO.N,Net-(BT1-Pad2)*
X153840000Y-78740000D03*
D12*
G04 #@! TO.P,BT1,1*
G04 #@! TO.N,Net-(BT1-Pad1)*
X133350000Y-78740000D03*
G04 #@! TD*
D13*
G04 #@! TO.P,BZ1,1*
G04 #@! TO.N,Net-(BZ1-Pad1)*
X171470000Y-78740000D03*
D14*
G04 #@! TO.P,BZ1,2*
G04 #@! TO.N,Net-(BT1-Pad2)*
X163870000Y-78740000D03*
G04 #@! TD*
D15*
G04 #@! TO.N,Net-(BZ1-Pad1)*
X130810000Y-69850000D03*
X130810000Y-72390000D03*
X130810000Y-74930000D03*
X130810000Y-77470000D03*
X130810000Y-80010000D03*
X130810000Y-82550000D03*
X130810000Y-85090000D03*
X130810000Y-87630000D03*
G04 #@! TD*
D16*
G04 #@! TO.N,Net-(BZ1-Pad1)*
X130810000Y-69850000D02*
X126365000Y-69850000D01*
X130810000Y-72390000D02*
X126365000Y-72390000D01*
X130810000Y-74930000D02*
X126365000Y-74930000D01*
X130810000Y-77470000D02*
X126365000Y-77470000D01*
X130810000Y-80010000D02*
X126365000Y-80010000D01*
X130810000Y-82550000D02*
X126365000Y-82550000D01*
X130810000Y-85090000D02*
X126365000Y-85090000D01*
X130810000Y-87630000D02*
X126365000Y-87630000D01*
D17*
X130810000Y-87630000D02*
X130810000Y-92190000D01*
X130810000Y-92190000D02*
X126000000Y-97000000D01*
X121920000Y-97000000D02*
X119860000Y-97000000D01*
X119860000Y-97000000D02*
X118900000Y-97000000D01*
X118900000Y-97000000D02*
X115570000Y-100330000D01*
X124460000Y-97000000D02*
X123670000Y-97000000D01*
X124460000Y-97000000D02*
X121920000Y-97000000D01*
X126000000Y-97000000D02*
X124460000Y-97000000D01*
X123670000Y-97000000D02*
X120650000Y-93980000D01*
X123670000Y-97000000D02*
X122710000Y-97000000D01*
X122710000Y-97000000D02*
X119380000Y-100330000D01*
X115570000Y-97000000D02*
X114780000Y-97000000D01*
X114780000Y-97000000D02*
X111760000Y-93980000D01*
X114780000Y-97000000D02*
X113820000Y-97000000D01*
X113820000Y-97000000D02*
X110490000Y-100330000D01*
X111760000Y-97000000D02*
X110970000Y-97000000D01*
X111760000Y-97000000D02*
X107000000Y-97000000D01*
X115570000Y-97000000D02*
X111760000Y-97000000D01*
X110970000Y-97000000D02*
X109220000Y-95250000D01*
X118110000Y-97000000D02*
X117320000Y-97000000D01*
X118110000Y-97000000D02*
X115570000Y-97000000D01*
X121920000Y-97000000D02*
X118110000Y-97000000D01*
X117320000Y-97000000D02*
X114300000Y-93980000D01*
G04 #@! TD*
D18*
G04 #@! TO.N,Net-(BT1-Pad1)*
G36*
X118939530Y-54355928D02*
X120867102Y-54584072D01*
X122770824Y-54962745D01*
X124638987Y-55489622D01*
X126460046Y-56161446D01*
X128222762Y-56974069D01*
X129916316Y-57922505D01*
X131530211Y-59000876D01*
X133054532Y-60202553D01*
X134495474Y-61534545D01*
X134676466Y-61709022D01*
X134695235Y-61724605D01*
X134712656Y-61741664D01*
X134727524Y-61753877D01*
X135546027Y-62408450D01*
X135583059Y-62433807D01*
X135619404Y-62460116D01*
X135635903Y-62469990D01*
X135635915Y-62469998D01*
X135635925Y-62470003D01*
X136542180Y-62996398D01*
X136582541Y-63015997D01*
X136622387Y-63036651D01*
X136640163Y-63043977D01*
X136640177Y-63043984D01*
X136640189Y-63043988D01*
X137614294Y-63430647D01*
X137657124Y-63444069D01*
X137699571Y-63458602D01*
X137718249Y-63463225D01*
X138738819Y-63701658D01*
X138783152Y-63708600D01*
X138827290Y-63716701D01*
X138846444Y-63718512D01*
X138846447Y-63718512D01*
X139891050Y-63803476D01*
X139935936Y-63803790D01*
X139980773Y-63805277D01*
X139999970Y-63804237D01*
X139999987Y-63804237D01*
X140000001Y-63804235D01*
X141028807Y-63735000D01*
X182969843Y-63735000D01*
X183859504Y-63808143D01*
X184695929Y-64018238D01*
X185486810Y-64362123D01*
X186210902Y-64830560D01*
X186848766Y-65410973D01*
X187383265Y-66087767D01*
X187800049Y-66842769D01*
X188087927Y-67655713D01*
X188241427Y-68517453D01*
X188265000Y-69017320D01*
X188265001Y-88969820D01*
X188191857Y-89859504D01*
X187981761Y-90695930D01*
X187637877Y-91486809D01*
X187169443Y-92210898D01*
X186589030Y-92848763D01*
X185912233Y-93383265D01*
X185157227Y-93800052D01*
X184344287Y-94087928D01*
X183482547Y-94241427D01*
X182982680Y-94265000D01*
X141045838Y-94265000D01*
X140829341Y-94238225D01*
X140804978Y-94237033D01*
X140780797Y-94233850D01*
X140761574Y-94233011D01*
X139714010Y-94201005D01*
X139669160Y-94202963D01*
X139624310Y-94203746D01*
X139605190Y-94205755D01*
X139605174Y-94205756D01*
X139605161Y-94205759D01*
X138564387Y-94328943D01*
X138520327Y-94337507D01*
X138476079Y-94344912D01*
X138457456Y-94349727D01*
X138457448Y-94349729D01*
X138457441Y-94349731D01*
X137446301Y-94625399D01*
X137403986Y-94640384D01*
X137361322Y-94654246D01*
X137343610Y-94661764D01*
X136384316Y-95083864D01*
X136344686Y-95104936D01*
X136304534Y-95124955D01*
X136288128Y-95135008D01*
X135401761Y-95694264D01*
X135365677Y-95720965D01*
X135328930Y-95746696D01*
X135314197Y-95759058D01*
X135314189Y-95759064D01*
X135314183Y-95759070D01*
X134520222Y-96443190D01*
X134515192Y-96448220D01*
X134501081Y-96460272D01*
X133054532Y-97797447D01*
X131530211Y-98999124D01*
X129916316Y-100077495D01*
X128222762Y-101025931D01*
X126460046Y-101838554D01*
X124638987Y-102510378D01*
X122770824Y-103037255D01*
X120867102Y-103415928D01*
X118939530Y-103644072D01*
X117000000Y-103720276D01*
X115060470Y-103644072D01*
X113132898Y-103415928D01*
X111229176Y-103037255D01*
X109361013Y-102510378D01*
X107539954Y-101838554D01*
X105777228Y-101025926D01*
X104083684Y-100077495D01*
X102469789Y-98999124D01*
X100945468Y-97797447D01*
X99520119Y-96479869D01*
X98202553Y-95054532D01*
X97000876Y-93530211D01*
X95922505Y-91916316D01*
X94974069Y-90222762D01*
X94161446Y-88460046D01*
X93489622Y-86638987D01*
X92962745Y-84770824D01*
X92584072Y-82867102D01*
X92355928Y-80939530D01*
X92306165Y-79672969D01*
X102781938Y-79672969D01*
X102783861Y-79711334D01*
X102785655Y-79749813D01*
X102785918Y-79752365D01*
X102937780Y-81204575D01*
X102943848Y-81242584D01*
X102949775Y-81280567D01*
X102950312Y-81283076D01*
X103258123Y-82710390D01*
X103268251Y-82747490D01*
X103278254Y-82784643D01*
X103279059Y-82787079D01*
X103739219Y-84172803D01*
X103753329Y-84208679D01*
X103767253Y-84244447D01*
X103768316Y-84246782D01*
X104375442Y-85574703D01*
X104393304Y-85608769D01*
X104411049Y-85642900D01*
X104412358Y-85645107D01*
X105159347Y-86899691D01*
X105180757Y-86931589D01*
X105202111Y-86963644D01*
X105203651Y-86965697D01*
X106081764Y-88132267D01*
X106106556Y-88161740D01*
X106131185Y-88191228D01*
X106132930Y-88193093D01*
X106132938Y-88193103D01*
X106132947Y-88193112D01*
X107131904Y-89258015D01*
X107159694Y-89284600D01*
X107187404Y-89311294D01*
X107189349Y-89312968D01*
X108297483Y-90263764D01*
X108328032Y-90287230D01*
X108358412Y-90310737D01*
X108360526Y-90312191D01*
X109564864Y-91137748D01*
X109597772Y-91157781D01*
X109630509Y-91177866D01*
X109632768Y-91179084D01*
X110919221Y-91869744D01*
X110954163Y-91886134D01*
X110988815Y-91902537D01*
X110991184Y-91903500D01*
X110991193Y-91903504D01*
X110991203Y-91903507D01*
X112344711Y-92451188D01*
X112381078Y-92463661D01*
X112417440Y-92476274D01*
X112419907Y-92476978D01*
X113824660Y-92875280D01*
X113862274Y-92883778D01*
X113899672Y-92892364D01*
X113902201Y-92892798D01*
X115341755Y-93137058D01*
X115379848Y-93141418D01*
X115418173Y-93145941D01*
X115420734Y-93146098D01*
X116878246Y-93233459D01*
X116916644Y-93233680D01*
X116955178Y-93234037D01*
X116957741Y-93233917D01*
X118416163Y-93163356D01*
X118454484Y-93159416D01*
X118492706Y-93155622D01*
X118495240Y-93155226D01*
X118495243Y-93155226D01*
X118495246Y-93155225D01*
X119937513Y-92927570D01*
X119975095Y-92919534D01*
X120012774Y-92911615D01*
X120015252Y-92910947D01*
X121424501Y-92528857D01*
X121461108Y-92516772D01*
X121497598Y-92504867D01*
X121499983Y-92503938D01*
X121499990Y-92503936D01*
X121499996Y-92503933D01*
X122859728Y-91971884D01*
X122894811Y-91955918D01*
X122929808Y-91940139D01*
X122932069Y-91938963D01*
X122932084Y-91938956D01*
X122932098Y-91938948D01*
X124226410Y-91263164D01*
X124259570Y-91243498D01*
X124292651Y-91224036D01*
X124294778Y-91222618D01*
X124294787Y-91222613D01*
X124294795Y-91222607D01*
X125508557Y-90410988D01*
X125572154Y-90363290D01*
X125579450Y-90356470D01*
X125581572Y-90355260D01*
X125688679Y-90262367D01*
X125748848Y-90184840D01*
X125818237Y-90115451D01*
X126035010Y-89791027D01*
X126067964Y-89711469D01*
X126144757Y-89526074D01*
X126220877Y-89143391D01*
X126220877Y-89143389D01*
X126235000Y-89072388D01*
X126235000Y-88506480D01*
X126277835Y-88515000D01*
X130050000Y-88515000D01*
X130050001Y-91875197D01*
X125685199Y-96240000D01*
X123984802Y-96240000D01*
X121134472Y-93389671D01*
X120946537Y-93264097D01*
X120650000Y-93205112D01*
X120353463Y-93264097D01*
X120102071Y-93432071D01*
X119934097Y-93683463D01*
X119875112Y-93980000D01*
X119934097Y-94276537D01*
X120059671Y-94464472D01*
X121835198Y-96240000D01*
X118974846Y-96240000D01*
X118899999Y-96225112D01*
X118825152Y-96240000D01*
X117634802Y-96240000D01*
X114784472Y-93389671D01*
X114596537Y-93264097D01*
X114300000Y-93205112D01*
X114003463Y-93264097D01*
X113752071Y-93432071D01*
X113584097Y-93683463D01*
X113525112Y-93980000D01*
X113584097Y-94276537D01*
X113709671Y-94464472D01*
X115485198Y-96240000D01*
X115094802Y-96240000D01*
X112244472Y-93389671D01*
X112056537Y-93264097D01*
X111760000Y-93205112D01*
X111463463Y-93264097D01*
X111212071Y-93432071D01*
X111044097Y-93683463D01*
X110985112Y-93980000D01*
X111044097Y-94276537D01*
X111169671Y-94464472D01*
X112945198Y-96240000D01*
X111284802Y-96240000D01*
X109704472Y-94659671D01*
X109516537Y-94534097D01*
X109220000Y-94475112D01*
X108923463Y-94534097D01*
X108672071Y-94702071D01*
X108504097Y-94953463D01*
X108445112Y-95250000D01*
X108504097Y-95546537D01*
X108629671Y-95734472D01*
X109135199Y-96240000D01*
X106925148Y-96240000D01*
X106703463Y-96284096D01*
X106452071Y-96452071D01*
X106284096Y-96703463D01*
X106225111Y-97000000D01*
X106284096Y-97296537D01*
X106452071Y-97547929D01*
X106703463Y-97715904D01*
X106925148Y-97760000D01*
X110895152Y-97760000D01*
X110970000Y-97774888D01*
X111044848Y-97760000D01*
X111985198Y-97760000D01*
X109899671Y-99845528D01*
X109774097Y-100033463D01*
X109715112Y-100330000D01*
X109774097Y-100626537D01*
X109942071Y-100877929D01*
X110193463Y-101045903D01*
X110490000Y-101104888D01*
X110786537Y-101045903D01*
X110974472Y-100920329D01*
X114134802Y-97760000D01*
X114705153Y-97760000D01*
X114780000Y-97774888D01*
X114854847Y-97760000D01*
X117065198Y-97760000D01*
X114979671Y-99845528D01*
X114854097Y-100033463D01*
X114795112Y-100330000D01*
X114854097Y-100626537D01*
X115022071Y-100877929D01*
X115273463Y-101045903D01*
X115570000Y-101104888D01*
X115866537Y-101045903D01*
X116054472Y-100920329D01*
X119214802Y-97760000D01*
X120875198Y-97760000D01*
X118789671Y-99845528D01*
X118664097Y-100033463D01*
X118605112Y-100330000D01*
X118664097Y-100626537D01*
X118832071Y-100877929D01*
X119083463Y-101045903D01*
X119380000Y-101104888D01*
X119676537Y-101045903D01*
X119864472Y-100920329D01*
X123024802Y-97760000D01*
X123595153Y-97760000D01*
X123670000Y-97774888D01*
X123744847Y-97760000D01*
X125925153Y-97760000D01*
X126000000Y-97774888D01*
X126074847Y-97760000D01*
X126074852Y-97760000D01*
X126296537Y-97715904D01*
X126547929Y-97547929D01*
X126590331Y-97484470D01*
X131294473Y-92780329D01*
X131357929Y-92737929D01*
X131525904Y-92486537D01*
X131570000Y-92264852D01*
X131570000Y-92264848D01*
X131584888Y-92190001D01*
X131570000Y-92115154D01*
X131570000Y-88333711D01*
X131687431Y-88216280D01*
X131845000Y-87835874D01*
X131845000Y-87424126D01*
X131687431Y-87043720D01*
X131396280Y-86752569D01*
X131015874Y-86595000D01*
X130604126Y-86595000D01*
X130241993Y-86745000D01*
X126277835Y-86745000D01*
X126235000Y-86753520D01*
X126235000Y-85966480D01*
X126277835Y-85975000D01*
X130241993Y-85975000D01*
X130604126Y-86125000D01*
X131015874Y-86125000D01*
X131396280Y-85967431D01*
X131687431Y-85676280D01*
X131845000Y-85295874D01*
X131845000Y-84884126D01*
X131687431Y-84503720D01*
X131396280Y-84212569D01*
X131015874Y-84055000D01*
X130604126Y-84055000D01*
X130241993Y-84205000D01*
X126277835Y-84205000D01*
X126235000Y-84213520D01*
X126235000Y-83426480D01*
X126277835Y-83435000D01*
X130241993Y-83435000D01*
X130604126Y-83585000D01*
X131015874Y-83585000D01*
X131396280Y-83427431D01*
X131687431Y-83136280D01*
X131845000Y-82755874D01*
X131845000Y-82344126D01*
X131687431Y-81963720D01*
X131396280Y-81672569D01*
X131015874Y-81515000D01*
X130604126Y-81515000D01*
X130241993Y-81665000D01*
X126277835Y-81665000D01*
X126235000Y-81673520D01*
X126235000Y-80886480D01*
X126277835Y-80895000D01*
X130241993Y-80895000D01*
X130604126Y-81045000D01*
X131015874Y-81045000D01*
X131396280Y-80887431D01*
X131500967Y-80782744D01*
X131723691Y-80875000D01*
X133064250Y-80875000D01*
X133223000Y-80716250D01*
X133223000Y-78867000D01*
X133477000Y-78867000D01*
X133477000Y-80716250D01*
X133635750Y-80875000D01*
X134976309Y-80875000D01*
X135209698Y-80778327D01*
X135388327Y-80599699D01*
X135485000Y-80366310D01*
X135485000Y-79025750D01*
X135326250Y-78867000D01*
X133477000Y-78867000D01*
X133223000Y-78867000D01*
X131373750Y-78867000D01*
X131215000Y-79025750D01*
X131215000Y-79057481D01*
X131015874Y-78975000D01*
X130604126Y-78975000D01*
X130241993Y-79125000D01*
X126277835Y-79125000D01*
X126235000Y-79133520D01*
X126235000Y-78346480D01*
X126277835Y-78355000D01*
X130241993Y-78355000D01*
X130604126Y-78505000D01*
X131015874Y-78505000D01*
X131215000Y-78422519D01*
X131215000Y-78454250D01*
X131373750Y-78613000D01*
X133223000Y-78613000D01*
X133223000Y-76763750D01*
X133477000Y-76763750D01*
X133477000Y-78613000D01*
X135326250Y-78613000D01*
X135485000Y-78454250D01*
X135485000Y-78315322D01*
X151705000Y-78315322D01*
X151705000Y-79164678D01*
X152030034Y-79949380D01*
X152630620Y-80549966D01*
X153415322Y-80875000D01*
X154264678Y-80875000D01*
X155049380Y-80549966D01*
X155649966Y-79949380D01*
X155975000Y-79164678D01*
X155975000Y-78414778D01*
X162235000Y-78414778D01*
X162235000Y-79065222D01*
X162483914Y-79666153D01*
X162943847Y-80126086D01*
X163544778Y-80375000D01*
X164195222Y-80375000D01*
X164796153Y-80126086D01*
X165256086Y-79666153D01*
X165505000Y-79065222D01*
X165505000Y-78414778D01*
X165256086Y-77813847D01*
X165182239Y-77740000D01*
X169822560Y-77740000D01*
X169822560Y-79740000D01*
X169871843Y-79987765D01*
X170012191Y-80197809D01*
X170222235Y-80338157D01*
X170470000Y-80387440D01*
X172470000Y-80387440D01*
X172717765Y-80338157D01*
X172927809Y-80197809D01*
X173068157Y-79987765D01*
X173117440Y-79740000D01*
X173117440Y-78116410D01*
X181015000Y-78116410D01*
X181015000Y-79363590D01*
X181492276Y-80515835D01*
X182374165Y-81397724D01*
X183526410Y-81875000D01*
X184773590Y-81875000D01*
X185925835Y-81397724D01*
X186807724Y-80515835D01*
X187285000Y-79363590D01*
X187285000Y-78116410D01*
X186807724Y-76964165D01*
X185925835Y-76082276D01*
X184773590Y-75605000D01*
X183526410Y-75605000D01*
X182374165Y-76082276D01*
X181492276Y-76964165D01*
X181015000Y-78116410D01*
X173117440Y-78116410D01*
X173117440Y-77740000D01*
X173068157Y-77492235D01*
X172927809Y-77282191D01*
X172717765Y-77141843D01*
X172470000Y-77092560D01*
X170470000Y-77092560D01*
X170222235Y-77141843D01*
X170012191Y-77282191D01*
X169871843Y-77492235D01*
X169822560Y-77740000D01*
X165182239Y-77740000D01*
X164796153Y-77353914D01*
X164195222Y-77105000D01*
X163544778Y-77105000D01*
X162943847Y-77353914D01*
X162483914Y-77813847D01*
X162235000Y-78414778D01*
X155975000Y-78414778D01*
X155975000Y-78315322D01*
X155649966Y-77530620D01*
X155049380Y-76930034D01*
X154264678Y-76605000D01*
X153415322Y-76605000D01*
X152630620Y-76930034D01*
X152030034Y-77530620D01*
X151705000Y-78315322D01*
X135485000Y-78315322D01*
X135485000Y-77113690D01*
X135388327Y-76880301D01*
X135209698Y-76701673D01*
X134976309Y-76605000D01*
X133635750Y-76605000D01*
X133477000Y-76763750D01*
X133223000Y-76763750D01*
X133064250Y-76605000D01*
X131723691Y-76605000D01*
X131500967Y-76697256D01*
X131396280Y-76592569D01*
X131015874Y-76435000D01*
X130604126Y-76435000D01*
X130241993Y-76585000D01*
X126277835Y-76585000D01*
X126235000Y-76593520D01*
X126235000Y-75806480D01*
X126277835Y-75815000D01*
X130241993Y-75815000D01*
X130604126Y-75965000D01*
X131015874Y-75965000D01*
X131396280Y-75807431D01*
X131687431Y-75516280D01*
X131845000Y-75135874D01*
X131845000Y-74724126D01*
X131687431Y-74343720D01*
X131396280Y-74052569D01*
X131015874Y-73895000D01*
X130604126Y-73895000D01*
X130241993Y-74045000D01*
X126277835Y-74045000D01*
X126235000Y-74053520D01*
X126235000Y-73266480D01*
X126277835Y-73275000D01*
X130241993Y-73275000D01*
X130604126Y-73425000D01*
X131015874Y-73425000D01*
X131396280Y-73267431D01*
X131687431Y-72976280D01*
X131845000Y-72595874D01*
X131845000Y-72184126D01*
X131687431Y-71803720D01*
X131396280Y-71512569D01*
X131015874Y-71355000D01*
X130604126Y-71355000D01*
X130241993Y-71505000D01*
X126277835Y-71505000D01*
X126235000Y-71513520D01*
X126235000Y-70726480D01*
X126277835Y-70735000D01*
X130241993Y-70735000D01*
X130604126Y-70885000D01*
X131015874Y-70885000D01*
X131396280Y-70727431D01*
X131687431Y-70436280D01*
X131845000Y-70055874D01*
X131845000Y-69644126D01*
X131687431Y-69263720D01*
X131396280Y-68972569D01*
X131015874Y-68815000D01*
X130604126Y-68815000D01*
X130241993Y-68965000D01*
X126277835Y-68965000D01*
X126235000Y-68973520D01*
X126235000Y-68927612D01*
X126229880Y-68901873D01*
X126223100Y-68806473D01*
X126197179Y-68711824D01*
X126183302Y-68614681D01*
X126053828Y-68246609D01*
X125978629Y-68119608D01*
X125907713Y-67999839D01*
X125647239Y-67709333D01*
X125644372Y-67707183D01*
X125634032Y-67694990D01*
X125576368Y-67640270D01*
X125513132Y-67592095D01*
X125511007Y-67590657D01*
X124390279Y-66834717D01*
X124358583Y-66815748D01*
X124326938Y-66796484D01*
X124324675Y-66795275D01*
X123035819Y-66109109D01*
X123000891Y-66092874D01*
X122966110Y-66076558D01*
X122963730Y-66075600D01*
X121608307Y-65532643D01*
X121571741Y-65520245D01*
X121535491Y-65507812D01*
X121533021Y-65507116D01*
X120126887Y-65113720D01*
X120089154Y-65105334D01*
X120051815Y-65096898D01*
X120049299Y-65096476D01*
X120049284Y-65096473D01*
X120049269Y-65096471D01*
X118608889Y-64857240D01*
X118570784Y-64853013D01*
X118532439Y-64848623D01*
X118529877Y-64848475D01*
X117072069Y-64766203D01*
X117033692Y-64766116D01*
X116995136Y-64765893D01*
X116992574Y-64766022D01*
X116992572Y-64766022D01*
X115534407Y-64841673D01*
X115496174Y-64845739D01*
X115457890Y-64849674D01*
X115455356Y-64850079D01*
X114013888Y-65082769D01*
X113976216Y-65090962D01*
X113938684Y-65098987D01*
X113936213Y-65099662D01*
X113936208Y-65099663D01*
X113936203Y-65099665D01*
X112528303Y-65486669D01*
X112491756Y-65498876D01*
X112455290Y-65510914D01*
X112452908Y-65511852D01*
X112452901Y-65511854D01*
X112452895Y-65511857D01*
X111095027Y-66048649D01*
X111060066Y-66064707D01*
X111025058Y-66080638D01*
X111022786Y-66081830D01*
X109730827Y-66762136D01*
X109697794Y-66781883D01*
X109664724Y-66801494D01*
X109662593Y-66802925D01*
X108451664Y-67618781D01*
X108420911Y-67642014D01*
X108390197Y-67665049D01*
X108388233Y-67666701D01*
X107272499Y-68608566D01*
X107244532Y-68634893D01*
X107216389Y-68661200D01*
X107214615Y-68663055D01*
X106207127Y-69719909D01*
X106182118Y-69749160D01*
X106157030Y-69778296D01*
X106155467Y-69780331D01*
X105268011Y-70939812D01*
X105246312Y-70971586D01*
X105224512Y-71003268D01*
X105223178Y-71005460D01*
X104466137Y-72254004D01*
X104448033Y-72287867D01*
X104429746Y-72321786D01*
X104428657Y-72324110D01*
X103810885Y-73647111D01*
X103796542Y-73682736D01*
X103782027Y-73718427D01*
X103781195Y-73720854D01*
X103309920Y-75102835D01*
X103299487Y-75139876D01*
X103288933Y-75176851D01*
X103288373Y-75179336D01*
X103288368Y-75179354D01*
X103288365Y-75179372D01*
X102969103Y-76604150D01*
X102962763Y-76641915D01*
X102956232Y-76680000D01*
X102955941Y-76682549D01*
X102792420Y-78133492D01*
X102790192Y-78171787D01*
X102787816Y-78210287D01*
X102787802Y-78212853D01*
X102781938Y-79672969D01*
X92306165Y-79672969D01*
X92279724Y-79000000D01*
X92355928Y-77060470D01*
X92584072Y-75132898D01*
X92962745Y-73229176D01*
X93489622Y-71361013D01*
X94031147Y-69893143D01*
X95513143Y-69893143D01*
X98886042Y-73266042D01*
X110096042Y-62056043D01*
X106723142Y-58683144D01*
X95513143Y-69893143D01*
X94031147Y-69893143D01*
X94161446Y-69539954D01*
X94974069Y-67777238D01*
X95922505Y-66083684D01*
X97000876Y-64469789D01*
X98202553Y-62945468D01*
X99520119Y-61520131D01*
X100945468Y-60202553D01*
X102469789Y-59000876D01*
X104083684Y-57922505D01*
X105777228Y-56974074D01*
X107539954Y-56161446D01*
X109361013Y-55489622D01*
X111229176Y-54962745D01*
X113132898Y-54584072D01*
X115060470Y-54355928D01*
X117000000Y-54279724D01*
X118939530Y-54355928D01*
X118939530Y-54355928D01*
G37*
X118939530Y-54355928D02*
X120867102Y-54584072D01*
X122770824Y-54962745D01*
X124638987Y-55489622D01*
X126460046Y-56161446D01*
X128222762Y-56974069D01*
X129916316Y-57922505D01*
X131530211Y-59000876D01*
X133054532Y-60202553D01*
X134495474Y-61534545D01*
X134676466Y-61709022D01*
X134695235Y-61724605D01*
X134712656Y-61741664D01*
X134727524Y-61753877D01*
X135546027Y-62408450D01*
X135583059Y-62433807D01*
X135619404Y-62460116D01*
X135635903Y-62469990D01*
X135635915Y-62469998D01*
X135635925Y-62470003D01*
X136542180Y-62996398D01*
X136582541Y-63015997D01*
X136622387Y-63036651D01*
X136640163Y-63043977D01*
X136640177Y-63043984D01*
X136640189Y-63043988D01*
X137614294Y-63430647D01*
X137657124Y-63444069D01*
X137699571Y-63458602D01*
X137718249Y-63463225D01*
X138738819Y-63701658D01*
X138783152Y-63708600D01*
X138827290Y-63716701D01*
X138846444Y-63718512D01*
X138846447Y-63718512D01*
X139891050Y-63803476D01*
X139935936Y-63803790D01*
X139980773Y-63805277D01*
X139999970Y-63804237D01*
X139999987Y-63804237D01*
X140000001Y-63804235D01*
X141028807Y-63735000D01*
X182969843Y-63735000D01*
X183859504Y-63808143D01*
X184695929Y-64018238D01*
X185486810Y-64362123D01*
X186210902Y-64830560D01*
X186848766Y-65410973D01*
X187383265Y-66087767D01*
X187800049Y-66842769D01*
X188087927Y-67655713D01*
X188241427Y-68517453D01*
X188265000Y-69017320D01*
X188265001Y-88969820D01*
X188191857Y-89859504D01*
X187981761Y-90695930D01*
X187637877Y-91486809D01*
X187169443Y-92210898D01*
X186589030Y-92848763D01*
X185912233Y-93383265D01*
X185157227Y-93800052D01*
X184344287Y-94087928D01*
X183482547Y-94241427D01*
X182982680Y-94265000D01*
X141045838Y-94265000D01*
X140829341Y-94238225D01*
X140804978Y-94237033D01*
X140780797Y-94233850D01*
X140761574Y-94233011D01*
X139714010Y-94201005D01*
X139669160Y-94202963D01*
X139624310Y-94203746D01*
X139605190Y-94205755D01*
X139605174Y-94205756D01*
X139605161Y-94205759D01*
X138564387Y-94328943D01*
X138520327Y-94337507D01*
X138476079Y-94344912D01*
X138457456Y-94349727D01*
X138457448Y-94349729D01*
X138457441Y-94349731D01*
X137446301Y-94625399D01*
X137403986Y-94640384D01*
X137361322Y-94654246D01*
X137343610Y-94661764D01*
X136384316Y-95083864D01*
X136344686Y-95104936D01*
X136304534Y-95124955D01*
X136288128Y-95135008D01*
X135401761Y-95694264D01*
X135365677Y-95720965D01*
X135328930Y-95746696D01*
X135314197Y-95759058D01*
X135314189Y-95759064D01*
X135314183Y-95759070D01*
X134520222Y-96443190D01*
X134515192Y-96448220D01*
X134501081Y-96460272D01*
X133054532Y-97797447D01*
X131530211Y-98999124D01*
X129916316Y-100077495D01*
X128222762Y-101025931D01*
X126460046Y-101838554D01*
X124638987Y-102510378D01*
X122770824Y-103037255D01*
X120867102Y-103415928D01*
X118939530Y-103644072D01*
X117000000Y-103720276D01*
X115060470Y-103644072D01*
X113132898Y-103415928D01*
X111229176Y-103037255D01*
X109361013Y-102510378D01*
X107539954Y-101838554D01*
X105777228Y-101025926D01*
X104083684Y-100077495D01*
X102469789Y-98999124D01*
X100945468Y-97797447D01*
X99520119Y-96479869D01*
X98202553Y-95054532D01*
X97000876Y-93530211D01*
X95922505Y-91916316D01*
X94974069Y-90222762D01*
X94161446Y-88460046D01*
X93489622Y-86638987D01*
X92962745Y-84770824D01*
X92584072Y-82867102D01*
X92355928Y-80939530D01*
X92306165Y-79672969D01*
X102781938Y-79672969D01*
X102783861Y-79711334D01*
X102785655Y-79749813D01*
X102785918Y-79752365D01*
X102937780Y-81204575D01*
X102943848Y-81242584D01*
X102949775Y-81280567D01*
X102950312Y-81283076D01*
X103258123Y-82710390D01*
X103268251Y-82747490D01*
X103278254Y-82784643D01*
X103279059Y-82787079D01*
X103739219Y-84172803D01*
X103753329Y-84208679D01*
X103767253Y-84244447D01*
X103768316Y-84246782D01*
X104375442Y-85574703D01*
X104393304Y-85608769D01*
X104411049Y-85642900D01*
X104412358Y-85645107D01*
X105159347Y-86899691D01*
X105180757Y-86931589D01*
X105202111Y-86963644D01*
X105203651Y-86965697D01*
X106081764Y-88132267D01*
X106106556Y-88161740D01*
X106131185Y-88191228D01*
X106132930Y-88193093D01*
X106132938Y-88193103D01*
X106132947Y-88193112D01*
X107131904Y-89258015D01*
X107159694Y-89284600D01*
X107187404Y-89311294D01*
X107189349Y-89312968D01*
X108297483Y-90263764D01*
X108328032Y-90287230D01*
X108358412Y-90310737D01*
X108360526Y-90312191D01*
X109564864Y-91137748D01*
X109597772Y-91157781D01*
X109630509Y-91177866D01*
X109632768Y-91179084D01*
X110919221Y-91869744D01*
X110954163Y-91886134D01*
X110988815Y-91902537D01*
X110991184Y-91903500D01*
X110991193Y-91903504D01*
X110991203Y-91903507D01*
X112344711Y-92451188D01*
X112381078Y-92463661D01*
X112417440Y-92476274D01*
X112419907Y-92476978D01*
X113824660Y-92875280D01*
X113862274Y-92883778D01*
X113899672Y-92892364D01*
X113902201Y-92892798D01*
X115341755Y-93137058D01*
X115379848Y-93141418D01*
X115418173Y-93145941D01*
X115420734Y-93146098D01*
X116878246Y-93233459D01*
X116916644Y-93233680D01*
X116955178Y-93234037D01*
X116957741Y-93233917D01*
X118416163Y-93163356D01*
X118454484Y-93159416D01*
X118492706Y-93155622D01*
X118495240Y-93155226D01*
X118495243Y-93155226D01*
X118495246Y-93155225D01*
X119937513Y-92927570D01*
X119975095Y-92919534D01*
X120012774Y-92911615D01*
X120015252Y-92910947D01*
X121424501Y-92528857D01*
X121461108Y-92516772D01*
X121497598Y-92504867D01*
X121499983Y-92503938D01*
X121499990Y-92503936D01*
X121499996Y-92503933D01*
X122859728Y-91971884D01*
X122894811Y-91955918D01*
X122929808Y-91940139D01*
X122932069Y-91938963D01*
X122932084Y-91938956D01*
X122932098Y-91938948D01*
X124226410Y-91263164D01*
X124259570Y-91243498D01*
X124292651Y-91224036D01*
X124294778Y-91222618D01*
X124294787Y-91222613D01*
X124294795Y-91222607D01*
X125508557Y-90410988D01*
X125572154Y-90363290D01*
X125579450Y-90356470D01*
X125581572Y-90355260D01*
X125688679Y-90262367D01*
X125748848Y-90184840D01*
X125818237Y-90115451D01*
X126035010Y-89791027D01*
X126067964Y-89711469D01*
X126144757Y-89526074D01*
X126220877Y-89143391D01*
X126220877Y-89143389D01*
X126235000Y-89072388D01*
X126235000Y-88506480D01*
X126277835Y-88515000D01*
X130050000Y-88515000D01*
X130050001Y-91875197D01*
X125685199Y-96240000D01*
X123984802Y-96240000D01*
X121134472Y-93389671D01*
X120946537Y-93264097D01*
X120650000Y-93205112D01*
X120353463Y-93264097D01*
X120102071Y-93432071D01*
X119934097Y-93683463D01*
X119875112Y-93980000D01*
X119934097Y-94276537D01*
X120059671Y-94464472D01*
X121835198Y-96240000D01*
X118974846Y-96240000D01*
X118899999Y-96225112D01*
X118825152Y-96240000D01*
X117634802Y-96240000D01*
X114784472Y-93389671D01*
X114596537Y-93264097D01*
X114300000Y-93205112D01*
X114003463Y-93264097D01*
X113752071Y-93432071D01*
X113584097Y-93683463D01*
X113525112Y-93980000D01*
X113584097Y-94276537D01*
X113709671Y-94464472D01*
X115485198Y-96240000D01*
X115094802Y-96240000D01*
X112244472Y-93389671D01*
X112056537Y-93264097D01*
X111760000Y-93205112D01*
X111463463Y-93264097D01*
X111212071Y-93432071D01*
X111044097Y-93683463D01*
X110985112Y-93980000D01*
X111044097Y-94276537D01*
X111169671Y-94464472D01*
X112945198Y-96240000D01*
X111284802Y-96240000D01*
X109704472Y-94659671D01*
X109516537Y-94534097D01*
X109220000Y-94475112D01*
X108923463Y-94534097D01*
X108672071Y-94702071D01*
X108504097Y-94953463D01*
X108445112Y-95250000D01*
X108504097Y-95546537D01*
X108629671Y-95734472D01*
X109135199Y-96240000D01*
X106925148Y-96240000D01*
X106703463Y-96284096D01*
X106452071Y-96452071D01*
X106284096Y-96703463D01*
X106225111Y-97000000D01*
X106284096Y-97296537D01*
X106452071Y-97547929D01*
X106703463Y-97715904D01*
X106925148Y-97760000D01*
X110895152Y-97760000D01*
X110970000Y-97774888D01*
X111044848Y-97760000D01*
X111985198Y-97760000D01*
X109899671Y-99845528D01*
X109774097Y-100033463D01*
X109715112Y-100330000D01*
X109774097Y-100626537D01*
X109942071Y-100877929D01*
X110193463Y-101045903D01*
X110490000Y-101104888D01*
X110786537Y-101045903D01*
X110974472Y-100920329D01*
X114134802Y-97760000D01*
X114705153Y-97760000D01*
X114780000Y-97774888D01*
X114854847Y-97760000D01*
X117065198Y-97760000D01*
X114979671Y-99845528D01*
X114854097Y-100033463D01*
X114795112Y-100330000D01*
X114854097Y-100626537D01*
X115022071Y-100877929D01*
X115273463Y-101045903D01*
X115570000Y-101104888D01*
X115866537Y-101045903D01*
X116054472Y-100920329D01*
X119214802Y-97760000D01*
X120875198Y-97760000D01*
X118789671Y-99845528D01*
X118664097Y-100033463D01*
X118605112Y-100330000D01*
X118664097Y-100626537D01*
X118832071Y-100877929D01*
X119083463Y-101045903D01*
X119380000Y-101104888D01*
X119676537Y-101045903D01*
X119864472Y-100920329D01*
X123024802Y-97760000D01*
X123595153Y-97760000D01*
X123670000Y-97774888D01*
X123744847Y-97760000D01*
X125925153Y-97760000D01*
X126000000Y-97774888D01*
X126074847Y-97760000D01*
X126074852Y-97760000D01*
X126296537Y-97715904D01*
X126547929Y-97547929D01*
X126590331Y-97484470D01*
X131294473Y-92780329D01*
X131357929Y-92737929D01*
X131525904Y-92486537D01*
X131570000Y-92264852D01*
X131570000Y-92264848D01*
X131584888Y-92190001D01*
X131570000Y-92115154D01*
X131570000Y-88333711D01*
X131687431Y-88216280D01*
X131845000Y-87835874D01*
X131845000Y-87424126D01*
X131687431Y-87043720D01*
X131396280Y-86752569D01*
X131015874Y-86595000D01*
X130604126Y-86595000D01*
X130241993Y-86745000D01*
X126277835Y-86745000D01*
X126235000Y-86753520D01*
X126235000Y-85966480D01*
X126277835Y-85975000D01*
X130241993Y-85975000D01*
X130604126Y-86125000D01*
X131015874Y-86125000D01*
X131396280Y-85967431D01*
X131687431Y-85676280D01*
X131845000Y-85295874D01*
X131845000Y-84884126D01*
X131687431Y-84503720D01*
X131396280Y-84212569D01*
X131015874Y-84055000D01*
X130604126Y-84055000D01*
X130241993Y-84205000D01*
X126277835Y-84205000D01*
X126235000Y-84213520D01*
X126235000Y-83426480D01*
X126277835Y-83435000D01*
X130241993Y-83435000D01*
X130604126Y-83585000D01*
X131015874Y-83585000D01*
X131396280Y-83427431D01*
X131687431Y-83136280D01*
X131845000Y-82755874D01*
X131845000Y-82344126D01*
X131687431Y-81963720D01*
X131396280Y-81672569D01*
X131015874Y-81515000D01*
X130604126Y-81515000D01*
X130241993Y-81665000D01*
X126277835Y-81665000D01*
X126235000Y-81673520D01*
X126235000Y-80886480D01*
X126277835Y-80895000D01*
X130241993Y-80895000D01*
X130604126Y-81045000D01*
X131015874Y-81045000D01*
X131396280Y-80887431D01*
X131500967Y-80782744D01*
X131723691Y-80875000D01*
X133064250Y-80875000D01*
X133223000Y-80716250D01*
X133223000Y-78867000D01*
X133477000Y-78867000D01*
X133477000Y-80716250D01*
X133635750Y-80875000D01*
X134976309Y-80875000D01*
X135209698Y-80778327D01*
X135388327Y-80599699D01*
X135485000Y-80366310D01*
X135485000Y-79025750D01*
X135326250Y-78867000D01*
X133477000Y-78867000D01*
X133223000Y-78867000D01*
X131373750Y-78867000D01*
X131215000Y-79025750D01*
X131215000Y-79057481D01*
X131015874Y-78975000D01*
X130604126Y-78975000D01*
X130241993Y-79125000D01*
X126277835Y-79125000D01*
X126235000Y-79133520D01*
X126235000Y-78346480D01*
X126277835Y-78355000D01*
X130241993Y-78355000D01*
X130604126Y-78505000D01*
X131015874Y-78505000D01*
X131215000Y-78422519D01*
X131215000Y-78454250D01*
X131373750Y-78613000D01*
X133223000Y-78613000D01*
X133223000Y-76763750D01*
X133477000Y-76763750D01*
X133477000Y-78613000D01*
X135326250Y-78613000D01*
X135485000Y-78454250D01*
X135485000Y-78315322D01*
X151705000Y-78315322D01*
X151705000Y-79164678D01*
X152030034Y-79949380D01*
X152630620Y-80549966D01*
X153415322Y-80875000D01*
X154264678Y-80875000D01*
X155049380Y-80549966D01*
X155649966Y-79949380D01*
X155975000Y-79164678D01*
X155975000Y-78414778D01*
X162235000Y-78414778D01*
X162235000Y-79065222D01*
X162483914Y-79666153D01*
X162943847Y-80126086D01*
X163544778Y-80375000D01*
X164195222Y-80375000D01*
X164796153Y-80126086D01*
X165256086Y-79666153D01*
X165505000Y-79065222D01*
X165505000Y-78414778D01*
X165256086Y-77813847D01*
X165182239Y-77740000D01*
X169822560Y-77740000D01*
X169822560Y-79740000D01*
X169871843Y-79987765D01*
X170012191Y-80197809D01*
X170222235Y-80338157D01*
X170470000Y-80387440D01*
X172470000Y-80387440D01*
X172717765Y-80338157D01*
X172927809Y-80197809D01*
X173068157Y-79987765D01*
X173117440Y-79740000D01*
X173117440Y-78116410D01*
X181015000Y-78116410D01*
X181015000Y-79363590D01*
X181492276Y-80515835D01*
X182374165Y-81397724D01*
X183526410Y-81875000D01*
X184773590Y-81875000D01*
X185925835Y-81397724D01*
X186807724Y-80515835D01*
X187285000Y-79363590D01*
X187285000Y-78116410D01*
X186807724Y-76964165D01*
X185925835Y-76082276D01*
X184773590Y-75605000D01*
X183526410Y-75605000D01*
X182374165Y-76082276D01*
X181492276Y-76964165D01*
X181015000Y-78116410D01*
X173117440Y-78116410D01*
X173117440Y-77740000D01*
X173068157Y-77492235D01*
X172927809Y-77282191D01*
X172717765Y-77141843D01*
X172470000Y-77092560D01*
X170470000Y-77092560D01*
X170222235Y-77141843D01*
X170012191Y-77282191D01*
X169871843Y-77492235D01*
X169822560Y-77740000D01*
X165182239Y-77740000D01*
X164796153Y-77353914D01*
X164195222Y-77105000D01*
X163544778Y-77105000D01*
X162943847Y-77353914D01*
X162483914Y-77813847D01*
X162235000Y-78414778D01*
X155975000Y-78414778D01*
X155975000Y-78315322D01*
X155649966Y-77530620D01*
X155049380Y-76930034D01*
X154264678Y-76605000D01*
X153415322Y-76605000D01*
X152630620Y-76930034D01*
X152030034Y-77530620D01*
X151705000Y-78315322D01*
X135485000Y-78315322D01*
X135485000Y-77113690D01*
X135388327Y-76880301D01*
X135209698Y-76701673D01*
X134976309Y-76605000D01*
X133635750Y-76605000D01*
X133477000Y-76763750D01*
X133223000Y-76763750D01*
X133064250Y-76605000D01*
X131723691Y-76605000D01*
X131500967Y-76697256D01*
X131396280Y-76592569D01*
X131015874Y-76435000D01*
X130604126Y-76435000D01*
X130241993Y-76585000D01*
X126277835Y-76585000D01*
X126235000Y-76593520D01*
X126235000Y-75806480D01*
X126277835Y-75815000D01*
X130241993Y-75815000D01*
X130604126Y-75965000D01*
X131015874Y-75965000D01*
X131396280Y-75807431D01*
X131687431Y-75516280D01*
X131845000Y-75135874D01*
X131845000Y-74724126D01*
X131687431Y-74343720D01*
X131396280Y-74052569D01*
X131015874Y-73895000D01*
X130604126Y-73895000D01*
X130241993Y-74045000D01*
X126277835Y-74045000D01*
X126235000Y-74053520D01*
X126235000Y-73266480D01*
X126277835Y-73275000D01*
X130241993Y-73275000D01*
X130604126Y-73425000D01*
X131015874Y-73425000D01*
X131396280Y-73267431D01*
X131687431Y-72976280D01*
X131845000Y-72595874D01*
X131845000Y-72184126D01*
X131687431Y-71803720D01*
X131396280Y-71512569D01*
X131015874Y-71355000D01*
X130604126Y-71355000D01*
X130241993Y-71505000D01*
X126277835Y-71505000D01*
X126235000Y-71513520D01*
X126235000Y-70726480D01*
X126277835Y-70735000D01*
X130241993Y-70735000D01*
X130604126Y-70885000D01*
X131015874Y-70885000D01*
X131396280Y-70727431D01*
X131687431Y-70436280D01*
X131845000Y-70055874D01*
X131845000Y-69644126D01*
X131687431Y-69263720D01*
X131396280Y-68972569D01*
X131015874Y-68815000D01*
X130604126Y-68815000D01*
X130241993Y-68965000D01*
X126277835Y-68965000D01*
X126235000Y-68973520D01*
X126235000Y-68927612D01*
X126229880Y-68901873D01*
X126223100Y-68806473D01*
X126197179Y-68711824D01*
X126183302Y-68614681D01*
X126053828Y-68246609D01*
X125978629Y-68119608D01*
X125907713Y-67999839D01*
X125647239Y-67709333D01*
X125644372Y-67707183D01*
X125634032Y-67694990D01*
X125576368Y-67640270D01*
X125513132Y-67592095D01*
X125511007Y-67590657D01*
X124390279Y-66834717D01*
X124358583Y-66815748D01*
X124326938Y-66796484D01*
X124324675Y-66795275D01*
X123035819Y-66109109D01*
X123000891Y-66092874D01*
X122966110Y-66076558D01*
X122963730Y-66075600D01*
X121608307Y-65532643D01*
X121571741Y-65520245D01*
X121535491Y-65507812D01*
X121533021Y-65507116D01*
X120126887Y-65113720D01*
X120089154Y-65105334D01*
X120051815Y-65096898D01*
X120049299Y-65096476D01*
X120049284Y-65096473D01*
X120049269Y-65096471D01*
X118608889Y-64857240D01*
X118570784Y-64853013D01*
X118532439Y-64848623D01*
X118529877Y-64848475D01*
X117072069Y-64766203D01*
X117033692Y-64766116D01*
X116995136Y-64765893D01*
X116992574Y-64766022D01*
X116992572Y-64766022D01*
X115534407Y-64841673D01*
X115496174Y-64845739D01*
X115457890Y-64849674D01*
X115455356Y-64850079D01*
X114013888Y-65082769D01*
X113976216Y-65090962D01*
X113938684Y-65098987D01*
X113936213Y-65099662D01*
X113936208Y-65099663D01*
X113936203Y-65099665D01*
X112528303Y-65486669D01*
X112491756Y-65498876D01*
X112455290Y-65510914D01*
X112452908Y-65511852D01*
X112452901Y-65511854D01*
X112452895Y-65511857D01*
X111095027Y-66048649D01*
X111060066Y-66064707D01*
X111025058Y-66080638D01*
X111022786Y-66081830D01*
X109730827Y-66762136D01*
X109697794Y-66781883D01*
X109664724Y-66801494D01*
X109662593Y-66802925D01*
X108451664Y-67618781D01*
X108420911Y-67642014D01*
X108390197Y-67665049D01*
X108388233Y-67666701D01*
X107272499Y-68608566D01*
X107244532Y-68634893D01*
X107216389Y-68661200D01*
X107214615Y-68663055D01*
X106207127Y-69719909D01*
X106182118Y-69749160D01*
X106157030Y-69778296D01*
X106155467Y-69780331D01*
X105268011Y-70939812D01*
X105246312Y-70971586D01*
X105224512Y-71003268D01*
X105223178Y-71005460D01*
X104466137Y-72254004D01*
X104448033Y-72287867D01*
X104429746Y-72321786D01*
X104428657Y-72324110D01*
X103810885Y-73647111D01*
X103796542Y-73682736D01*
X103782027Y-73718427D01*
X103781195Y-73720854D01*
X103309920Y-75102835D01*
X103299487Y-75139876D01*
X103288933Y-75176851D01*
X103288373Y-75179336D01*
X103288368Y-75179354D01*
X103288365Y-75179372D01*
X102969103Y-76604150D01*
X102962763Y-76641915D01*
X102956232Y-76680000D01*
X102955941Y-76682549D01*
X102792420Y-78133492D01*
X102790192Y-78171787D01*
X102787816Y-78210287D01*
X102787802Y-78212853D01*
X102781938Y-79672969D01*
X92306165Y-79672969D01*
X92279724Y-79000000D01*
X92355928Y-77060470D01*
X92584072Y-75132898D01*
X92962745Y-73229176D01*
X93489622Y-71361013D01*
X94031147Y-69893143D01*
X95513143Y-69893143D01*
X98886042Y-73266042D01*
X110096042Y-62056043D01*
X106723142Y-58683144D01*
X95513143Y-69893143D01*
X94031147Y-69893143D01*
X94161446Y-69539954D01*
X94974069Y-67777238D01*
X95922505Y-66083684D01*
X97000876Y-64469789D01*
X98202553Y-62945468D01*
X99520119Y-61520131D01*
X100945468Y-60202553D01*
X102469789Y-59000876D01*
X104083684Y-57922505D01*
X105777228Y-56974074D01*
X107539954Y-56161446D01*
X109361013Y-55489622D01*
X111229176Y-54962745D01*
X113132898Y-54584072D01*
X115060470Y-54355928D01*
X117000000Y-54279724D01*
X118939530Y-54355928D01*
G04 #@! TD*
M02*
