G04 #@! TF.GenerationSoftware,KiCad,Pcbnew,(5.0.2)-1*
G04 #@! TF.CreationDate,2025-08-06T21:36:18+02:00*
G04 #@! TF.ProjectId,beerodul,62656572-6f64-4756-9c2e-6b696361645f,rev?*
G04 #@! TF.SameCoordinates,Original*
G04 #@! TF.FileFunction,Other,Comment*
%FSLAX46Y46*%
G04 Gerber Fmt 4.6, Leading zero omitted, Abs format (unit mm)*
G04 Created by KiCad (PCBNEW (5.0.2)-1) date 6. 08. 2025 21:36:18*
%MOMM*%
%LPD*%
G01*
G04 APERTURE LIST*
%ADD10C,0.300000*%
%ADD11C,0.150000*%
G04 APERTURE END LIST*
D10*
X110692857Y-79275714D02*
X110621428Y-79347142D01*
X110407142Y-79418571D01*
X110264285Y-79418571D01*
X110050000Y-79347142D01*
X109907142Y-79204285D01*
X109835714Y-79061428D01*
X109764285Y-78775714D01*
X109764285Y-78561428D01*
X109835714Y-78275714D01*
X109907142Y-78132857D01*
X110050000Y-77990000D01*
X110264285Y-77918571D01*
X110407142Y-77918571D01*
X110621428Y-77990000D01*
X110692857Y-78061428D01*
X111335714Y-77918571D02*
X111335714Y-79132857D01*
X111407142Y-79275714D01*
X111478571Y-79347142D01*
X111621428Y-79418571D01*
X111907142Y-79418571D01*
X112050000Y-79347142D01*
X112121428Y-79275714D01*
X112192857Y-79132857D01*
X112192857Y-77918571D01*
X112692857Y-77918571D02*
X113550000Y-77918571D01*
X113121428Y-79418571D02*
X113121428Y-77918571D01*
X115478571Y-77918571D02*
X115764285Y-77918571D01*
X115907142Y-77990000D01*
X116050000Y-78132857D01*
X116121428Y-78418571D01*
X116121428Y-78918571D01*
X116050000Y-79204285D01*
X115907142Y-79347142D01*
X115764285Y-79418571D01*
X115478571Y-79418571D01*
X115335714Y-79347142D01*
X115192857Y-79204285D01*
X115121428Y-78918571D01*
X115121428Y-78418571D01*
X115192857Y-78132857D01*
X115335714Y-77990000D01*
X115478571Y-77918571D01*
X116764285Y-77918571D02*
X116764285Y-79132857D01*
X116835714Y-79275714D01*
X116907142Y-79347142D01*
X117050000Y-79418571D01*
X117335714Y-79418571D01*
X117478571Y-79347142D01*
X117550000Y-79275714D01*
X117621428Y-79132857D01*
X117621428Y-77918571D01*
X118121428Y-77918571D02*
X118978571Y-77918571D01*
X118550000Y-79418571D02*
X118550000Y-77918571D01*
D11*
G04 #@! TO.C,REF\002A\002A*
X189150000Y-78740000D02*
G75*
G03X189150000Y-78740000I-5000000J0D01*
G01*
G04 #@! TD*
M02*
