G04 #@! TF.GenerationSoftware,KiCad,Pcbnew,(5.0.2)-1*
G04 #@! TF.CreationDate,2025-08-06T21:36:18+02:00*
G04 #@! TF.ProjectId,beerodul,62656572-6f64-4756-9c2e-6b696361645f,rev?*
G04 #@! TF.SameCoordinates,Original*
G04 #@! TF.FileFunction,Copper,L2,Bot*
G04 #@! TF.FilePolarity,Positive*
%FSLAX46Y46*%
G04 Gerber Fmt 4.6, Leading zero omitted, Abs format (unit mm)*
G04 Created by KiCad (PCBNEW (5.0.2)-1) date 6. 08. 2025 21:36:18*
%MOMM*%
%LPD*%
G01*
G04 APERTURE LIST*
G04 #@! TA.AperFunction,ComponentPad*
%ADD10C,3.000000*%
G04 #@! TD*
G04 #@! TA.AperFunction,ComponentPad*
%ADD11R,3.000000X3.000000*%
G04 #@! TD*
G04 #@! TA.AperFunction,ComponentPad*
%ADD12R,2.000000X2.000000*%
G04 #@! TD*
G04 #@! TA.AperFunction,ComponentPad*
%ADD13C,2.000000*%
G04 #@! TD*
G04 #@! TA.AperFunction,ViaPad*
%ADD14C,0.800000*%
G04 #@! TD*
G04 #@! TA.AperFunction,Conductor*
%ADD15C,0.250000*%
G04 #@! TD*
G04 #@! TA.AperFunction,Conductor*
%ADD16C,0.254000*%
G04 #@! TD*
G04 APERTURE END LIST*
D10*
G04 #@! TO.P,BT1,2*
G04 #@! TO.N,Net-(BT1-Pad2)*
X153840000Y-78740000D03*
D11*
G04 #@! TO.P,BT1,1*
G04 #@! TO.N,Net-(BT1-Pad1)*
X133350000Y-78740000D03*
G04 #@! TD*
D12*
G04 #@! TO.P,BZ1,1*
G04 #@! TO.N,Net-(BZ1-Pad1)*
X171470000Y-78740000D03*
D13*
G04 #@! TO.P,BZ1,2*
G04 #@! TO.N,Net-(BT1-Pad2)*
X163870000Y-78740000D03*
G04 #@! TD*
D14*
G04 #@! TO.N,Net-(BZ1-Pad1)*
X130810000Y-69850000D03*
X130810000Y-72390000D03*
X130810000Y-74930000D03*
X130810000Y-77470000D03*
X130810000Y-80010000D03*
X130810000Y-82550000D03*
X130810000Y-85090000D03*
X130810000Y-87630000D03*
G04 #@! TD*
D15*
G04 #@! TO.N,Net-(BT1-Pad2)*
X153840000Y-78740000D02*
X163870000Y-78740000D01*
G04 #@! TD*
D16*
G04 #@! TO.N,Net-(BZ1-Pad1)*
G36*
X118939530Y-54355928D02*
X120867102Y-54584072D01*
X122770824Y-54962745D01*
X124638987Y-55489622D01*
X126460046Y-56161446D01*
X128222762Y-56974069D01*
X129916316Y-57922505D01*
X131530211Y-59000876D01*
X133054532Y-60202553D01*
X134495474Y-61534545D01*
X134676466Y-61709022D01*
X134695235Y-61724605D01*
X134712656Y-61741664D01*
X134727524Y-61753877D01*
X135546027Y-62408450D01*
X135583059Y-62433807D01*
X135619404Y-62460116D01*
X135635903Y-62469990D01*
X135635915Y-62469998D01*
X135635925Y-62470003D01*
X136542180Y-62996398D01*
X136582541Y-63015997D01*
X136622387Y-63036651D01*
X136640163Y-63043977D01*
X136640177Y-63043984D01*
X136640189Y-63043988D01*
X137614294Y-63430647D01*
X137657124Y-63444069D01*
X137699571Y-63458602D01*
X137718249Y-63463225D01*
X138738819Y-63701658D01*
X138783152Y-63708600D01*
X138827290Y-63716701D01*
X138846444Y-63718512D01*
X138846447Y-63718512D01*
X139891050Y-63803476D01*
X139935936Y-63803790D01*
X139980773Y-63805277D01*
X139999970Y-63804237D01*
X139999987Y-63804237D01*
X140000001Y-63804235D01*
X141028807Y-63735000D01*
X177673000Y-63735000D01*
X177673000Y-94265000D01*
X141045838Y-94265000D01*
X140829341Y-94238225D01*
X140804978Y-94237033D01*
X140780797Y-94233850D01*
X140761574Y-94233011D01*
X139714010Y-94201005D01*
X139669160Y-94202963D01*
X139624310Y-94203746D01*
X139605190Y-94205755D01*
X139605174Y-94205756D01*
X139605161Y-94205759D01*
X138564387Y-94328943D01*
X138520327Y-94337507D01*
X138476079Y-94344912D01*
X138457456Y-94349727D01*
X138457448Y-94349729D01*
X138457441Y-94349731D01*
X137446301Y-94625399D01*
X137403986Y-94640384D01*
X137361322Y-94654246D01*
X137343610Y-94661764D01*
X136384316Y-95083864D01*
X136344686Y-95104936D01*
X136304534Y-95124955D01*
X136288128Y-95135008D01*
X135401761Y-95694264D01*
X135365677Y-95720965D01*
X135328930Y-95746696D01*
X135314197Y-95759058D01*
X135314189Y-95759064D01*
X135314183Y-95759070D01*
X134520222Y-96443190D01*
X134515192Y-96448220D01*
X134501081Y-96460272D01*
X133054532Y-97797447D01*
X131530211Y-98999124D01*
X129916316Y-100077495D01*
X128222762Y-101025931D01*
X126460046Y-101838554D01*
X124638987Y-102510378D01*
X122770824Y-103037255D01*
X120867102Y-103415928D01*
X118939530Y-103644072D01*
X117000000Y-103720276D01*
X115060470Y-103644072D01*
X113132898Y-103415928D01*
X111229176Y-103037255D01*
X109361013Y-102510378D01*
X107539954Y-101838554D01*
X105777228Y-101025926D01*
X104083684Y-100077495D01*
X102469789Y-98999124D01*
X100945468Y-97797447D01*
X99520119Y-96479869D01*
X98202553Y-95054532D01*
X97000876Y-93530211D01*
X95922505Y-91916316D01*
X94974069Y-90222762D01*
X94161446Y-88460046D01*
X93489622Y-86638987D01*
X92962745Y-84770824D01*
X92584072Y-82867102D01*
X92355928Y-80939530D01*
X92306165Y-79672969D01*
X102781938Y-79672969D01*
X102783861Y-79711334D01*
X102785655Y-79749813D01*
X102785918Y-79752365D01*
X102937780Y-81204575D01*
X102943848Y-81242584D01*
X102949775Y-81280567D01*
X102950312Y-81283076D01*
X103258123Y-82710390D01*
X103268251Y-82747490D01*
X103278254Y-82784643D01*
X103279059Y-82787079D01*
X103739219Y-84172803D01*
X103753329Y-84208679D01*
X103767253Y-84244447D01*
X103768316Y-84246782D01*
X104375442Y-85574703D01*
X104393304Y-85608769D01*
X104411049Y-85642900D01*
X104412358Y-85645107D01*
X105159347Y-86899691D01*
X105180757Y-86931589D01*
X105202111Y-86963644D01*
X105203651Y-86965697D01*
X106081764Y-88132267D01*
X106106556Y-88161740D01*
X106131185Y-88191228D01*
X106132930Y-88193093D01*
X106132938Y-88193103D01*
X106132947Y-88193112D01*
X107131904Y-89258015D01*
X107159694Y-89284600D01*
X107187404Y-89311294D01*
X107189349Y-89312968D01*
X108297483Y-90263764D01*
X108328032Y-90287230D01*
X108358412Y-90310737D01*
X108360526Y-90312191D01*
X109564864Y-91137748D01*
X109597772Y-91157781D01*
X109630509Y-91177866D01*
X109632768Y-91179084D01*
X110919221Y-91869744D01*
X110954163Y-91886134D01*
X110988815Y-91902537D01*
X110991184Y-91903500D01*
X110991193Y-91903504D01*
X110991203Y-91903507D01*
X112344711Y-92451188D01*
X112381078Y-92463661D01*
X112417440Y-92476274D01*
X112419907Y-92476978D01*
X113824660Y-92875280D01*
X113862274Y-92883778D01*
X113899672Y-92892364D01*
X113902201Y-92892798D01*
X115341755Y-93137058D01*
X115379848Y-93141418D01*
X115418173Y-93145941D01*
X115420734Y-93146098D01*
X116878246Y-93233459D01*
X116916644Y-93233680D01*
X116955178Y-93234037D01*
X116957741Y-93233917D01*
X118416163Y-93163356D01*
X118454484Y-93159416D01*
X118492706Y-93155622D01*
X118495240Y-93155226D01*
X118495243Y-93155226D01*
X118495246Y-93155225D01*
X119937513Y-92927570D01*
X119975095Y-92919534D01*
X120012774Y-92911615D01*
X120015252Y-92910947D01*
X121424501Y-92528857D01*
X121461108Y-92516772D01*
X121497598Y-92504867D01*
X121499983Y-92503938D01*
X121499990Y-92503936D01*
X121499996Y-92503933D01*
X122859728Y-91971884D01*
X122894811Y-91955918D01*
X122929808Y-91940139D01*
X122932069Y-91938963D01*
X122932084Y-91938956D01*
X122932098Y-91938948D01*
X124226410Y-91263164D01*
X124259570Y-91243498D01*
X124292651Y-91224036D01*
X124294778Y-91222618D01*
X124294787Y-91222613D01*
X124294795Y-91222607D01*
X125508557Y-90410988D01*
X125572154Y-90363290D01*
X125579450Y-90356470D01*
X125581572Y-90355260D01*
X125688679Y-90262367D01*
X125748848Y-90184840D01*
X125818237Y-90115451D01*
X126035010Y-89791027D01*
X126067964Y-89711469D01*
X126144757Y-89526074D01*
X126220877Y-89143391D01*
X126220877Y-89143389D01*
X126235000Y-89072388D01*
X126235000Y-77240000D01*
X131202560Y-77240000D01*
X131202560Y-80240000D01*
X131251843Y-80487765D01*
X131392191Y-80697809D01*
X131602235Y-80838157D01*
X131850000Y-80887440D01*
X134850000Y-80887440D01*
X135097765Y-80838157D01*
X135307809Y-80697809D01*
X135448157Y-80487765D01*
X135497440Y-80240000D01*
X135497440Y-78315322D01*
X151705000Y-78315322D01*
X151705000Y-79164678D01*
X152030034Y-79949380D01*
X152630620Y-80549966D01*
X153415322Y-80875000D01*
X154264678Y-80875000D01*
X155049380Y-80549966D01*
X155649966Y-79949380D01*
X155836105Y-79500000D01*
X162415091Y-79500000D01*
X162483914Y-79666153D01*
X162943847Y-80126086D01*
X163544778Y-80375000D01*
X164195222Y-80375000D01*
X164796153Y-80126086D01*
X165256086Y-79666153D01*
X165505000Y-79065222D01*
X165505000Y-79025750D01*
X169835000Y-79025750D01*
X169835000Y-79866310D01*
X169931673Y-80099699D01*
X170110302Y-80278327D01*
X170343691Y-80375000D01*
X171184250Y-80375000D01*
X171343000Y-80216250D01*
X171343000Y-78867000D01*
X171597000Y-78867000D01*
X171597000Y-80216250D01*
X171755750Y-80375000D01*
X172596309Y-80375000D01*
X172829698Y-80278327D01*
X173008327Y-80099699D01*
X173105000Y-79866310D01*
X173105000Y-79025750D01*
X172946250Y-78867000D01*
X171597000Y-78867000D01*
X171343000Y-78867000D01*
X169993750Y-78867000D01*
X169835000Y-79025750D01*
X165505000Y-79025750D01*
X165505000Y-78414778D01*
X165256086Y-77813847D01*
X165055929Y-77613690D01*
X169835000Y-77613690D01*
X169835000Y-78454250D01*
X169993750Y-78613000D01*
X171343000Y-78613000D01*
X171343000Y-77263750D01*
X171597000Y-77263750D01*
X171597000Y-78613000D01*
X172946250Y-78613000D01*
X173105000Y-78454250D01*
X173105000Y-77613690D01*
X173008327Y-77380301D01*
X172829698Y-77201673D01*
X172596309Y-77105000D01*
X171755750Y-77105000D01*
X171597000Y-77263750D01*
X171343000Y-77263750D01*
X171184250Y-77105000D01*
X170343691Y-77105000D01*
X170110302Y-77201673D01*
X169931673Y-77380301D01*
X169835000Y-77613690D01*
X165055929Y-77613690D01*
X164796153Y-77353914D01*
X164195222Y-77105000D01*
X163544778Y-77105000D01*
X162943847Y-77353914D01*
X162483914Y-77813847D01*
X162415091Y-77980000D01*
X155836105Y-77980000D01*
X155649966Y-77530620D01*
X155049380Y-76930034D01*
X154264678Y-76605000D01*
X153415322Y-76605000D01*
X152630620Y-76930034D01*
X152030034Y-77530620D01*
X151705000Y-78315322D01*
X135497440Y-78315322D01*
X135497440Y-77240000D01*
X135448157Y-76992235D01*
X135307809Y-76782191D01*
X135097765Y-76641843D01*
X134850000Y-76592560D01*
X131850000Y-76592560D01*
X131602235Y-76641843D01*
X131392191Y-76782191D01*
X131251843Y-76992235D01*
X131202560Y-77240000D01*
X126235000Y-77240000D01*
X126235000Y-68927612D01*
X126229880Y-68901873D01*
X126223100Y-68806473D01*
X126197179Y-68711824D01*
X126183302Y-68614681D01*
X126053828Y-68246609D01*
X125978629Y-68119608D01*
X125907713Y-67999839D01*
X125647239Y-67709333D01*
X125644372Y-67707183D01*
X125634032Y-67694990D01*
X125576368Y-67640270D01*
X125513132Y-67592095D01*
X125511007Y-67590657D01*
X124390279Y-66834717D01*
X124358583Y-66815748D01*
X124326938Y-66796484D01*
X124324675Y-66795275D01*
X123035819Y-66109109D01*
X123000891Y-66092874D01*
X122966110Y-66076558D01*
X122963730Y-66075600D01*
X121608307Y-65532643D01*
X121571741Y-65520245D01*
X121535491Y-65507812D01*
X121533021Y-65507116D01*
X120126887Y-65113720D01*
X120089154Y-65105334D01*
X120051815Y-65096898D01*
X120049299Y-65096476D01*
X120049284Y-65096473D01*
X120049269Y-65096471D01*
X118608889Y-64857240D01*
X118570784Y-64853013D01*
X118532439Y-64848623D01*
X118529877Y-64848475D01*
X117072069Y-64766203D01*
X117033692Y-64766116D01*
X116995136Y-64765893D01*
X116992574Y-64766022D01*
X116992572Y-64766022D01*
X115534407Y-64841673D01*
X115496174Y-64845739D01*
X115457890Y-64849674D01*
X115455356Y-64850079D01*
X114013888Y-65082769D01*
X113976216Y-65090962D01*
X113938684Y-65098987D01*
X113936213Y-65099662D01*
X113936208Y-65099663D01*
X113936203Y-65099665D01*
X112528303Y-65486669D01*
X112491756Y-65498876D01*
X112455290Y-65510914D01*
X112452908Y-65511852D01*
X112452901Y-65511854D01*
X112452895Y-65511857D01*
X111095027Y-66048649D01*
X111060066Y-66064707D01*
X111025058Y-66080638D01*
X111022786Y-66081830D01*
X109730827Y-66762136D01*
X109697794Y-66781883D01*
X109664724Y-66801494D01*
X109662593Y-66802925D01*
X108451664Y-67618781D01*
X108420911Y-67642014D01*
X108390197Y-67665049D01*
X108388233Y-67666701D01*
X107272499Y-68608566D01*
X107244532Y-68634893D01*
X107216389Y-68661200D01*
X107214615Y-68663055D01*
X106207127Y-69719909D01*
X106182118Y-69749160D01*
X106157030Y-69778296D01*
X106155467Y-69780331D01*
X105268011Y-70939812D01*
X105246312Y-70971586D01*
X105224512Y-71003268D01*
X105223178Y-71005460D01*
X104466137Y-72254004D01*
X104448033Y-72287867D01*
X104429746Y-72321786D01*
X104428657Y-72324110D01*
X103810885Y-73647111D01*
X103796542Y-73682736D01*
X103782027Y-73718427D01*
X103781195Y-73720854D01*
X103309920Y-75102835D01*
X103299487Y-75139876D01*
X103288933Y-75176851D01*
X103288373Y-75179336D01*
X103288368Y-75179354D01*
X103288365Y-75179372D01*
X102969103Y-76604150D01*
X102962775Y-76641843D01*
X102956232Y-76680000D01*
X102955941Y-76682549D01*
X102792420Y-78133492D01*
X102790192Y-78171787D01*
X102787816Y-78210287D01*
X102787802Y-78212853D01*
X102781938Y-79672969D01*
X92306165Y-79672969D01*
X92279724Y-79000000D01*
X92355928Y-77060470D01*
X92584072Y-75132898D01*
X92962745Y-73229176D01*
X93489622Y-71361013D01*
X94161446Y-69539954D01*
X94974069Y-67777238D01*
X95922505Y-66083684D01*
X97000876Y-64469789D01*
X98202553Y-62945468D01*
X99520119Y-61520131D01*
X100945468Y-60202553D01*
X102469789Y-59000876D01*
X104083684Y-57922505D01*
X105777228Y-56974074D01*
X107539954Y-56161446D01*
X109361013Y-55489622D01*
X111229176Y-54962745D01*
X113132898Y-54584072D01*
X115060470Y-54355928D01*
X117000000Y-54279724D01*
X118939530Y-54355928D01*
X118939530Y-54355928D01*
G37*
X118939530Y-54355928D02*
X120867102Y-54584072D01*
X122770824Y-54962745D01*
X124638987Y-55489622D01*
X126460046Y-56161446D01*
X128222762Y-56974069D01*
X129916316Y-57922505D01*
X131530211Y-59000876D01*
X133054532Y-60202553D01*
X134495474Y-61534545D01*
X134676466Y-61709022D01*
X134695235Y-61724605D01*
X134712656Y-61741664D01*
X134727524Y-61753877D01*
X135546027Y-62408450D01*
X135583059Y-62433807D01*
X135619404Y-62460116D01*
X135635903Y-62469990D01*
X135635915Y-62469998D01*
X135635925Y-62470003D01*
X136542180Y-62996398D01*
X136582541Y-63015997D01*
X136622387Y-63036651D01*
X136640163Y-63043977D01*
X136640177Y-63043984D01*
X136640189Y-63043988D01*
X137614294Y-63430647D01*
X137657124Y-63444069D01*
X137699571Y-63458602D01*
X137718249Y-63463225D01*
X138738819Y-63701658D01*
X138783152Y-63708600D01*
X138827290Y-63716701D01*
X138846444Y-63718512D01*
X138846447Y-63718512D01*
X139891050Y-63803476D01*
X139935936Y-63803790D01*
X139980773Y-63805277D01*
X139999970Y-63804237D01*
X139999987Y-63804237D01*
X140000001Y-63804235D01*
X141028807Y-63735000D01*
X177673000Y-63735000D01*
X177673000Y-94265000D01*
X141045838Y-94265000D01*
X140829341Y-94238225D01*
X140804978Y-94237033D01*
X140780797Y-94233850D01*
X140761574Y-94233011D01*
X139714010Y-94201005D01*
X139669160Y-94202963D01*
X139624310Y-94203746D01*
X139605190Y-94205755D01*
X139605174Y-94205756D01*
X139605161Y-94205759D01*
X138564387Y-94328943D01*
X138520327Y-94337507D01*
X138476079Y-94344912D01*
X138457456Y-94349727D01*
X138457448Y-94349729D01*
X138457441Y-94349731D01*
X137446301Y-94625399D01*
X137403986Y-94640384D01*
X137361322Y-94654246D01*
X137343610Y-94661764D01*
X136384316Y-95083864D01*
X136344686Y-95104936D01*
X136304534Y-95124955D01*
X136288128Y-95135008D01*
X135401761Y-95694264D01*
X135365677Y-95720965D01*
X135328930Y-95746696D01*
X135314197Y-95759058D01*
X135314189Y-95759064D01*
X135314183Y-95759070D01*
X134520222Y-96443190D01*
X134515192Y-96448220D01*
X134501081Y-96460272D01*
X133054532Y-97797447D01*
X131530211Y-98999124D01*
X129916316Y-100077495D01*
X128222762Y-101025931D01*
X126460046Y-101838554D01*
X124638987Y-102510378D01*
X122770824Y-103037255D01*
X120867102Y-103415928D01*
X118939530Y-103644072D01*
X117000000Y-103720276D01*
X115060470Y-103644072D01*
X113132898Y-103415928D01*
X111229176Y-103037255D01*
X109361013Y-102510378D01*
X107539954Y-101838554D01*
X105777228Y-101025926D01*
X104083684Y-100077495D01*
X102469789Y-98999124D01*
X100945468Y-97797447D01*
X99520119Y-96479869D01*
X98202553Y-95054532D01*
X97000876Y-93530211D01*
X95922505Y-91916316D01*
X94974069Y-90222762D01*
X94161446Y-88460046D01*
X93489622Y-86638987D01*
X92962745Y-84770824D01*
X92584072Y-82867102D01*
X92355928Y-80939530D01*
X92306165Y-79672969D01*
X102781938Y-79672969D01*
X102783861Y-79711334D01*
X102785655Y-79749813D01*
X102785918Y-79752365D01*
X102937780Y-81204575D01*
X102943848Y-81242584D01*
X102949775Y-81280567D01*
X102950312Y-81283076D01*
X103258123Y-82710390D01*
X103268251Y-82747490D01*
X103278254Y-82784643D01*
X103279059Y-82787079D01*
X103739219Y-84172803D01*
X103753329Y-84208679D01*
X103767253Y-84244447D01*
X103768316Y-84246782D01*
X104375442Y-85574703D01*
X104393304Y-85608769D01*
X104411049Y-85642900D01*
X104412358Y-85645107D01*
X105159347Y-86899691D01*
X105180757Y-86931589D01*
X105202111Y-86963644D01*
X105203651Y-86965697D01*
X106081764Y-88132267D01*
X106106556Y-88161740D01*
X106131185Y-88191228D01*
X106132930Y-88193093D01*
X106132938Y-88193103D01*
X106132947Y-88193112D01*
X107131904Y-89258015D01*
X107159694Y-89284600D01*
X107187404Y-89311294D01*
X107189349Y-89312968D01*
X108297483Y-90263764D01*
X108328032Y-90287230D01*
X108358412Y-90310737D01*
X108360526Y-90312191D01*
X109564864Y-91137748D01*
X109597772Y-91157781D01*
X109630509Y-91177866D01*
X109632768Y-91179084D01*
X110919221Y-91869744D01*
X110954163Y-91886134D01*
X110988815Y-91902537D01*
X110991184Y-91903500D01*
X110991193Y-91903504D01*
X110991203Y-91903507D01*
X112344711Y-92451188D01*
X112381078Y-92463661D01*
X112417440Y-92476274D01*
X112419907Y-92476978D01*
X113824660Y-92875280D01*
X113862274Y-92883778D01*
X113899672Y-92892364D01*
X113902201Y-92892798D01*
X115341755Y-93137058D01*
X115379848Y-93141418D01*
X115418173Y-93145941D01*
X115420734Y-93146098D01*
X116878246Y-93233459D01*
X116916644Y-93233680D01*
X116955178Y-93234037D01*
X116957741Y-93233917D01*
X118416163Y-93163356D01*
X118454484Y-93159416D01*
X118492706Y-93155622D01*
X118495240Y-93155226D01*
X118495243Y-93155226D01*
X118495246Y-93155225D01*
X119937513Y-92927570D01*
X119975095Y-92919534D01*
X120012774Y-92911615D01*
X120015252Y-92910947D01*
X121424501Y-92528857D01*
X121461108Y-92516772D01*
X121497598Y-92504867D01*
X121499983Y-92503938D01*
X121499990Y-92503936D01*
X121499996Y-92503933D01*
X122859728Y-91971884D01*
X122894811Y-91955918D01*
X122929808Y-91940139D01*
X122932069Y-91938963D01*
X122932084Y-91938956D01*
X122932098Y-91938948D01*
X124226410Y-91263164D01*
X124259570Y-91243498D01*
X124292651Y-91224036D01*
X124294778Y-91222618D01*
X124294787Y-91222613D01*
X124294795Y-91222607D01*
X125508557Y-90410988D01*
X125572154Y-90363290D01*
X125579450Y-90356470D01*
X125581572Y-90355260D01*
X125688679Y-90262367D01*
X125748848Y-90184840D01*
X125818237Y-90115451D01*
X126035010Y-89791027D01*
X126067964Y-89711469D01*
X126144757Y-89526074D01*
X126220877Y-89143391D01*
X126220877Y-89143389D01*
X126235000Y-89072388D01*
X126235000Y-77240000D01*
X131202560Y-77240000D01*
X131202560Y-80240000D01*
X131251843Y-80487765D01*
X131392191Y-80697809D01*
X131602235Y-80838157D01*
X131850000Y-80887440D01*
X134850000Y-80887440D01*
X135097765Y-80838157D01*
X135307809Y-80697809D01*
X135448157Y-80487765D01*
X135497440Y-80240000D01*
X135497440Y-78315322D01*
X151705000Y-78315322D01*
X151705000Y-79164678D01*
X152030034Y-79949380D01*
X152630620Y-80549966D01*
X153415322Y-80875000D01*
X154264678Y-80875000D01*
X155049380Y-80549966D01*
X155649966Y-79949380D01*
X155836105Y-79500000D01*
X162415091Y-79500000D01*
X162483914Y-79666153D01*
X162943847Y-80126086D01*
X163544778Y-80375000D01*
X164195222Y-80375000D01*
X164796153Y-80126086D01*
X165256086Y-79666153D01*
X165505000Y-79065222D01*
X165505000Y-79025750D01*
X169835000Y-79025750D01*
X169835000Y-79866310D01*
X169931673Y-80099699D01*
X170110302Y-80278327D01*
X170343691Y-80375000D01*
X171184250Y-80375000D01*
X171343000Y-80216250D01*
X171343000Y-78867000D01*
X171597000Y-78867000D01*
X171597000Y-80216250D01*
X171755750Y-80375000D01*
X172596309Y-80375000D01*
X172829698Y-80278327D01*
X173008327Y-80099699D01*
X173105000Y-79866310D01*
X173105000Y-79025750D01*
X172946250Y-78867000D01*
X171597000Y-78867000D01*
X171343000Y-78867000D01*
X169993750Y-78867000D01*
X169835000Y-79025750D01*
X165505000Y-79025750D01*
X165505000Y-78414778D01*
X165256086Y-77813847D01*
X165055929Y-77613690D01*
X169835000Y-77613690D01*
X169835000Y-78454250D01*
X169993750Y-78613000D01*
X171343000Y-78613000D01*
X171343000Y-77263750D01*
X171597000Y-77263750D01*
X171597000Y-78613000D01*
X172946250Y-78613000D01*
X173105000Y-78454250D01*
X173105000Y-77613690D01*
X173008327Y-77380301D01*
X172829698Y-77201673D01*
X172596309Y-77105000D01*
X171755750Y-77105000D01*
X171597000Y-77263750D01*
X171343000Y-77263750D01*
X171184250Y-77105000D01*
X170343691Y-77105000D01*
X170110302Y-77201673D01*
X169931673Y-77380301D01*
X169835000Y-77613690D01*
X165055929Y-77613690D01*
X164796153Y-77353914D01*
X164195222Y-77105000D01*
X163544778Y-77105000D01*
X162943847Y-77353914D01*
X162483914Y-77813847D01*
X162415091Y-77980000D01*
X155836105Y-77980000D01*
X155649966Y-77530620D01*
X155049380Y-76930034D01*
X154264678Y-76605000D01*
X153415322Y-76605000D01*
X152630620Y-76930034D01*
X152030034Y-77530620D01*
X151705000Y-78315322D01*
X135497440Y-78315322D01*
X135497440Y-77240000D01*
X135448157Y-76992235D01*
X135307809Y-76782191D01*
X135097765Y-76641843D01*
X134850000Y-76592560D01*
X131850000Y-76592560D01*
X131602235Y-76641843D01*
X131392191Y-76782191D01*
X131251843Y-76992235D01*
X131202560Y-77240000D01*
X126235000Y-77240000D01*
X126235000Y-68927612D01*
X126229880Y-68901873D01*
X126223100Y-68806473D01*
X126197179Y-68711824D01*
X126183302Y-68614681D01*
X126053828Y-68246609D01*
X125978629Y-68119608D01*
X125907713Y-67999839D01*
X125647239Y-67709333D01*
X125644372Y-67707183D01*
X125634032Y-67694990D01*
X125576368Y-67640270D01*
X125513132Y-67592095D01*
X125511007Y-67590657D01*
X124390279Y-66834717D01*
X124358583Y-66815748D01*
X124326938Y-66796484D01*
X124324675Y-66795275D01*
X123035819Y-66109109D01*
X123000891Y-66092874D01*
X122966110Y-66076558D01*
X122963730Y-66075600D01*
X121608307Y-65532643D01*
X121571741Y-65520245D01*
X121535491Y-65507812D01*
X121533021Y-65507116D01*
X120126887Y-65113720D01*
X120089154Y-65105334D01*
X120051815Y-65096898D01*
X120049299Y-65096476D01*
X120049284Y-65096473D01*
X120049269Y-65096471D01*
X118608889Y-64857240D01*
X118570784Y-64853013D01*
X118532439Y-64848623D01*
X118529877Y-64848475D01*
X117072069Y-64766203D01*
X117033692Y-64766116D01*
X116995136Y-64765893D01*
X116992574Y-64766022D01*
X116992572Y-64766022D01*
X115534407Y-64841673D01*
X115496174Y-64845739D01*
X115457890Y-64849674D01*
X115455356Y-64850079D01*
X114013888Y-65082769D01*
X113976216Y-65090962D01*
X113938684Y-65098987D01*
X113936213Y-65099662D01*
X113936208Y-65099663D01*
X113936203Y-65099665D01*
X112528303Y-65486669D01*
X112491756Y-65498876D01*
X112455290Y-65510914D01*
X112452908Y-65511852D01*
X112452901Y-65511854D01*
X112452895Y-65511857D01*
X111095027Y-66048649D01*
X111060066Y-66064707D01*
X111025058Y-66080638D01*
X111022786Y-66081830D01*
X109730827Y-66762136D01*
X109697794Y-66781883D01*
X109664724Y-66801494D01*
X109662593Y-66802925D01*
X108451664Y-67618781D01*
X108420911Y-67642014D01*
X108390197Y-67665049D01*
X108388233Y-67666701D01*
X107272499Y-68608566D01*
X107244532Y-68634893D01*
X107216389Y-68661200D01*
X107214615Y-68663055D01*
X106207127Y-69719909D01*
X106182118Y-69749160D01*
X106157030Y-69778296D01*
X106155467Y-69780331D01*
X105268011Y-70939812D01*
X105246312Y-70971586D01*
X105224512Y-71003268D01*
X105223178Y-71005460D01*
X104466137Y-72254004D01*
X104448033Y-72287867D01*
X104429746Y-72321786D01*
X104428657Y-72324110D01*
X103810885Y-73647111D01*
X103796542Y-73682736D01*
X103782027Y-73718427D01*
X103781195Y-73720854D01*
X103309920Y-75102835D01*
X103299487Y-75139876D01*
X103288933Y-75176851D01*
X103288373Y-75179336D01*
X103288368Y-75179354D01*
X103288365Y-75179372D01*
X102969103Y-76604150D01*
X102962775Y-76641843D01*
X102956232Y-76680000D01*
X102955941Y-76682549D01*
X102792420Y-78133492D01*
X102790192Y-78171787D01*
X102787816Y-78210287D01*
X102787802Y-78212853D01*
X102781938Y-79672969D01*
X92306165Y-79672969D01*
X92279724Y-79000000D01*
X92355928Y-77060470D01*
X92584072Y-75132898D01*
X92962745Y-73229176D01*
X93489622Y-71361013D01*
X94161446Y-69539954D01*
X94974069Y-67777238D01*
X95922505Y-66083684D01*
X97000876Y-64469789D01*
X98202553Y-62945468D01*
X99520119Y-61520131D01*
X100945468Y-60202553D01*
X102469789Y-59000876D01*
X104083684Y-57922505D01*
X105777228Y-56974074D01*
X107539954Y-56161446D01*
X109361013Y-55489622D01*
X111229176Y-54962745D01*
X113132898Y-54584072D01*
X115060470Y-54355928D01*
X117000000Y-54279724D01*
X118939530Y-54355928D01*
G04 #@! TD*
M02*
